<?xml version="1.0" encoding="UTF-8"?>
<?xml-stylesheet href="https://cdnjs.cloudflare.com/ajax/libs/font-awesome/6.7.2/css/all.min.css" type="text/css"?>
<svg id="graph-47" width="100%" xmlns="http://www.w3.org/2000/svg" class="flowchart" style="overflow: hidden; max-width: 100%; touch-action: none; user-select: none; background-color: rgb(2, 8, 23);" role="graphics-document document" aria-roledescription="flowchart-v2" height="100%" xmlns:xlink="http://www.w3.org/1999/xlink" xmlns:ev="http://www.w3.org/2001/xml-events"><g id="viewport-20260314184048486" class="svg-pan-zoom_viewport" transform="matrix(0.16503936052322388,0,0,0.16503936052322388,368.9700012207031,38.9375)" style="transform: matrix(0.165039, 0, 0, 0.165039, 368.97, 38.9375);"><style>#graph-47{font-family:"trebuchet ms",verdana,arial,sans-serif;font-size:16px;fill:#ccc;}@keyframes edge-animation-frame{from{stroke-dashoffset:0;}}@keyframes dash{to{stroke-dashoffset:0;}}#graph-47 .edge-animation-slow{stroke-dasharray:9,5!important;stroke-dashoffset:900;animation:dash 50s linear infinite;stroke-linecap:round;}#graph-47 .edge-animation-fast{stroke-dasharray:9,5!important;stroke-dashoffset:900;animation:dash 20s linear infinite;stroke-linecap:round;}#graph-47 .error-icon{fill:#a44141;}#graph-47 .error-text{fill:#ddd;stroke:#ddd;}#graph-47 .edge-thickness-normal{stroke-width:1px;}#graph-47 .edge-thickness-thick{stroke-width:3.5px;}#graph-47 .edge-pattern-solid{stroke-dasharray:0;}#graph-47 .edge-thickness-invisible{stroke-width:0;fill:none;}#graph-47 .edge-pattern-dashed{stroke-dasharray:3;}#graph-47 .edge-pattern-dotted{stroke-dasharray:2;}#graph-47 .marker{fill:lightgrey;stroke:lightgrey;}#graph-47 .marker.cross{stroke:lightgrey;}#graph-47 svg{font-family:"trebuchet ms",verdana,arial,sans-serif;font-size:16px;}#graph-47 p{margin:0;}#graph-47 .label{font-family:"trebuchet ms",verdana,arial,sans-serif;color:#ccc;}#graph-47 .cluster-label text{fill:#F9FFFE;}#graph-47 .cluster-label span{color:#F9FFFE;}#graph-47 .cluster-label span p{background-color:transparent;}#graph-47 .label text,#graph-47 span{fill:#ccc;color:#ccc;}#graph-47 .node rect,#graph-47 .node circle,#graph-47 .node ellipse,#graph-47 .node polygon,#graph-47 .node path{fill:#1f2020;stroke:#ccc;stroke-width:1px;}#graph-47 .rough-node .label text,#graph-47 .node .label text,#graph-47 .image-shape .label,#graph-47 .icon-shape .label{text-anchor:middle;}#graph-47 .node .katex path{fill:#000;stroke:#000;stroke-width:1px;}#graph-47 .rough-node .label,#graph-47 .node .label,#graph-47 .image-shape .label,#graph-47 .icon-shape .label{text-align:center;}#graph-47 .node.clickable{cursor:pointer;}#graph-47 .root .anchor path{fill:lightgrey!important;stroke-width:0;stroke:lightgrey;}#graph-47 .arrowheadPath{fill:lightgrey;}#graph-47 .edgePath .path{stroke:lightgrey;stroke-width:2.0px;}#graph-47 .flowchart-link{stroke:lightgrey;fill:none;}#graph-47 .edgeLabel{background-color:hsl(0, 0%, 34.4117647059%);text-align:center;}#graph-47 .edgeLabel p{background-color:hsl(0, 0%, 34.4117647059%);}#graph-47 .edgeLabel rect{opacity:0.5;background-color:hsl(0, 0%, 34.4117647059%);fill:hsl(0, 0%, 34.4117647059%);}#graph-47 .labelBkg{background-color:rgba(87.75, 87.75, 87.75, 0.5);}#graph-47 .cluster rect{fill:hsl(180, 1.5873015873%, 28.3529411765%);stroke:rgba(255, 255, 255, 0.25);stroke-width:1px;}#graph-47 .cluster text{fill:#F9FFFE;}#graph-47 .cluster span{color:#F9FFFE;}#graph-47 div.mermaidTooltip{position:absolute;text-align:center;max-width:200px;padding:2px;font-family:"trebuchet ms",verdana,arial,sans-serif;font-size:12px;background:hsl(20, 1.5873015873%, 12.3529411765%);border:1px solid rgba(255, 255, 255, 0.25);border-radius:2px;pointer-events:none;z-index:100;}#graph-47 .flowchartTitleText{text-anchor:middle;font-size:18px;fill:#ccc;}#graph-47 rect.text{fill:none;stroke-width:0;}#graph-47 .icon-shape,#graph-47 .image-shape{background-color:hsl(0, 0%, 34.4117647059%);text-align:center;}#graph-47 .icon-shape p,#graph-47 .image-shape p{background-color:hsl(0, 0%, 34.4117647059%);padding:2px;}#graph-47 .icon-shape rect,#graph-47 .image-shape rect{opacity:0.5;background-color:hsl(0, 0%, 34.4117647059%);fill:hsl(0, 0%, 34.4117647059%);}#graph-47 .label-icon{display:inline-block;height:1em;overflow:visible;vertical-align:-0.125em;}#graph-47 .node .label-icon path{fill:currentColor;stroke:revert;stroke-width:revert;}#graph-47 :root{--mermaid-font-family:"trebuchet ms",verdana,arial,sans-serif;}</style><g><marker id="graph-47_flowchart-v2-pointEnd" class="marker flowchart-v2" viewBox="0 0 10 10" refX="5" refY="5" markerUnits="userSpaceOnUse" markerWidth="8" markerHeight="8" orient="auto"><path d="M 0 0 L 10 5 L 0 10 z" class="arrowMarkerPath" style="stroke-width: 1px; stroke-dasharray: 1px, 0px;"></path></marker><marker id="graph-47_flowchart-v2-pointStart" class="marker flowchart-v2" viewBox="0 0 10 10" refX="4.5" refY="5" markerUnits="userSpaceOnUse" markerWidth="8" markerHeight="8" orient="auto"><path d="M 0 5 L 10 10 L 10 0 z" class="arrowMarkerPath" style="stroke-width: 1px; stroke-dasharray: 1px, 0px;"></path></marker><marker id="graph-47_flowchart-v2-circleEnd" class="marker flowchart-v2" viewBox="0 0 10 10" refX="11" refY="5" markerUnits="userSpaceOnUse" markerWidth="11" markerHeight="11" orient="auto"><circle cx="5" cy="5" r="5" class="arrowMarkerPath" style="stroke-width: 1px; stroke-dasharray: 1px, 0px;"></circle></marker><marker id="graph-47_flowchart-v2-circleStart" class="marker flowchart-v2" viewBox="0 0 10 10" refX="-1" refY="5" markerUnits="userSpaceOnUse" markerWidth="11" markerHeight="11" orient="auto"><circle cx="5" cy="5" r="5" class="arrowMarkerPath" style="stroke-width: 1px; stroke-dasharray: 1px, 0px;"></circle></marker><marker id="graph-47_flowchart-v2-crossEnd" class="marker cross flowchart-v2" viewBox="0 0 11 11" refX="12" refY="5.2" markerUnits="userSpaceOnUse" markerWidth="11" markerHeight="11" orient="auto"><path d="M 1,1 l 9,9 M 10,1 l -9,9" class="arrowMarkerPath" style="stroke-width: 2px; stroke-dasharray: 1px, 0px;"></path></marker><marker id="graph-47_flowchart-v2-crossStart" class="marker cross flowchart-v2" viewBox="0 0 11 11" refX="-1" refY="5.2" markerUnits="userSpaceOnUse" markerWidth="11" markerHeight="11" orient="auto"><path d="M 1,1 l 9,9 M 10,1 l -9,9" class="arrowMarkerPath" style="stroke-width: 2px; stroke-dasharray: 1px, 0px;"></path></marker><g class="root"><g class="clusters"></g><g class="edgePaths"><path d="M990.242,47.5L990.158,51.583C990.075,55.667,989.908,63.833,989.825,71.417C989.742,79,989.742,86,989.742,89.5L989.742,93" id="L_A_B_0" class="edge-thickness-normal edge-pattern-solid edge-thickness-normal edge-pattern-solid flowchart-link" style=";" data-edge="true" data-et="edge" data-id="L_A_B_0" data-points="W3sieCI6OTkwLjI0MTY2ODcwMTE3MTksInkiOjQ3LjQ5OTk5OTk5OTk5OTk3fSx7IngiOjk4OS43NDE2Njg3MDExNzE5LCJ5Ijo3Mn0seyJ4Ijo5ODkuNzQxNjY4NzAxMTcxOSwieSI6OTd9XQ==" marker-end="url(#graph-47_flowchart-v2-pointEnd)"></path><path d="M899.589,284.847L860.476,306.039C821.363,327.231,743.138,369.616,704.025,396.308C664.913,423,664.913,434,664.913,439.5L664.913,445" id="L_B_C_0" class="edge-thickness-normal edge-pattern-solid edge-thickness-normal edge-pattern-solid flowchart-link" style=";" data-edge="true" data-et="edge" data-id="L_B_C_0" data-points="W3sieCI6ODk5LjU4ODY2NDEyNTI3MTcsInkiOjI4NC44NDY5OTU0MjQwOTk5fSx7IngiOjY2NC45MTI1MDIyODg4MTg0LCJ5Ijo0MTJ9LHsieCI6NjY0LjkxMjUwMjI4ODgxODQsInkiOjQ0OX1d" marker-end="url(#graph-47_flowchart-v2-pointEnd)"></path><path d="M571.446,487.017L513.499,493.848C455.551,500.678,339.657,514.339,281.71,524.67C223.763,535,223.763,542,223.763,545.5L223.763,549" id="L_C_D_0" class="edge-thickness-normal edge-pattern-solid edge-thickness-normal edge-pattern-solid flowchart-link" style=";" data-edge="true" data-et="edge" data-id="L_C_D_0" data-points="W3sieCI6NTcxLjQ0NTgzNTExMzUyNTQsInkiOjQ4Ny4wMTcyNjU1MDIyMTk3fSx7IngiOjIyMy43NjI1MDA3NjI5Mzk0NSwieSI6NTI4fSx7IngiOjIyMy43NjI1MDA3NjI5Mzk0NSwieSI6NTUzfV0=" marker-end="url(#graph-47_flowchart-v2-pointEnd)"></path><path d="M187.305,631L181.54,637.167C175.775,643.333,164.246,655.667,158.481,667.333C152.717,679,152.717,690,152.717,695.5L152.717,701" id="L_D_E_0" class="edge-thickness-normal edge-pattern-solid edge-thickness-normal edge-pattern-solid flowchart-link" style=";" data-edge="true" data-et="edge" data-id="L_D_E_0" data-points="W3sieCI6MTg3LjMwNDc3MDM2OTI3ODc0LCJ5Ijo2MzF9LHsieCI6MTUyLjcxNjY2NzE3NTI5Mjk3LCJ5Ijo2Njh9LHsieCI6MTUyLjcxNjY2NzE3NTI5Mjk3LCJ5Ijo3MDV9XQ==" marker-end="url(#graph-47_flowchart-v2-pointEnd)"></path><path d="M132.228,759L127.548,765.167C122.868,771.333,113.509,783.667,108.83,797.333C104.15,811,104.15,826,104.15,833.5L104.15,841" id="L_E_F_0" class="edge-thickness-normal edge-pattern-solid edge-thickness-normal edge-pattern-solid flowchart-link" style=";" data-edge="true" data-et="edge" data-id="L_E_F_0" data-points="W3sieCI6MTMyLjIyNzYwNTEwNDQ0NjQsInkiOjc1OX0seyJ4IjoxMDQuMTUwMDAxNTI1ODc4OSwieSI6Nzk2fSx7IngiOjEwNC4xNTAwMDE1MjU4Nzg5LCJ5Ijo4NDV9XQ==" marker-end="url(#graph-47_flowchart-v2-pointEnd)"></path><path d="M200.3,854.589L254.224,844.824C308.149,835.059,415.997,815.53,469.922,795.098C523.846,774.667,523.846,753.333,523.846,732C523.846,710.667,523.846,689.333,496.145,671.651C468.444,653.969,413.042,639.937,385.341,632.922L357.64,625.906" id="L_F_D_0" class="edge-thickness-normal edge-pattern-solid edge-thickness-normal edge-pattern-solid flowchart-link" style=";" data-edge="true" data-et="edge" data-id="L_F_D_0" data-points="W3sieCI6MjAwLjMwMDAwMzA1MTc1NzgsInkiOjg1NC41ODg4MTkwODEzNDY5fSx7IngiOjUyMy44NDU4MzY2Mzk0MDQzLCJ5Ijo3OTZ9LHsieCI6NTIzLjg0NTgzNjYzOTQwNDMsInkiOjczMn0seyJ4Ijo1MjMuODQ1ODM2NjM5NDA0MywieSI6NjY4fSx7IngiOjM1My43NjI1MDA3NjI5Mzk0NSwieSI6NjI0LjkyNDE4NzQ0NjYwNzR9XQ==" marker-end="url(#graph-47_flowchart-v2-pointEnd)"></path><path d="M248.287,759L270.115,765.167C291.943,771.333,335.599,783.667,357.502,795.333C379.406,807,379.557,818,379.633,823.5L379.708,829" id="L_E_G_0" class="edge-thickness-normal edge-pattern-solid edge-thickness-normal edge-pattern-solid flowchart-link" style=";" data-edge="true" data-et="edge" data-id="L_E_G_0" data-points="W3sieCI6MjQ4LjI4NzE3NTk1MzM4ODIsInkiOjc1OX0seyJ4IjozNzkuMjU0MTY5NDY0MTExMywieSI6Nzk2fSx7IngiOjM3OS43NjMzMjUyODk2NzYwNiwieSI6ODMzfV0=" marker-end="url(#graph-47_flowchart-v2-pointEnd)"></path><path d="M1089.378,275.364L1147.02,298.136C1204.662,320.909,1319.945,366.455,1377.587,399.894C1435.229,433.333,1435.229,454.667,1435.229,474C1435.229,493.333,1435.229,510.667,1435.229,530C1435.229,549.333,1435.229,570.667,1435.229,594C1435.229,617.333,1435.229,642.667,1435.229,666C1435.229,689.333,1435.229,710.667,1435.229,732C1435.229,753.333,1435.229,774.667,1435.229,798C1435.229,821.333,1435.229,846.667,1435.229,870C1435.229,893.333,1435.229,914.667,1371.854,933.221C1308.479,951.775,1181.728,967.551,1118.353,975.438L1054.978,983.326" id="L_B_H_0" class="edge-thickness-normal edge-pattern-solid edge-thickness-normal edge-pattern-solid flowchart-link" style=";" data-edge="true" data-et="edge" data-id="L_B_H_0" data-points="W3sieCI6MTA4OS4zNzgwNDUwODg0MTcsInkiOjI3NS4zNjM2MjM2MTI3NTQ5Nn0seyJ4IjoxNDM1LjIyOTE2NzkzODIzMjQsInkiOjQxMn0seyJ4IjoxNDM1LjIyOTE2NzkzODIzMjQsInkiOjQ3Nn0seyJ4IjoxNDM1LjIyOTE2NzkzODIzMjQsInkiOjUyOH0seyJ4IjoxNDM1LjIyOTE2NzkzODIzMjQsInkiOjU5Mn0seyJ4IjoxNDM1LjIyOTE2NzkzODIzMjQsInkiOjY2OH0seyJ4IjoxNDM1LjIyOTE2NzkzODIzMjQsInkiOjczMn0seyJ4IjoxNDM1LjIyOTE2NzkzODIzMjQsInkiOjc5Nn0seyJ4IjoxNDM1LjIyOTE2NzkzODIzMjQsInkiOjg3Mn0seyJ4IjoxNDM1LjIyOTE2NzkzODIzMjQsInkiOjkzNn0seyJ4IjoxMDUxLjAwODMzNTExMzUyNTQsInkiOjk4My44MjAxODEwMDIyMDM0fV0=" marker-end="url(#graph-47_flowchart-v2-pointEnd)"></path><path d="M380.3,911L380.3,915.167C380.3,919.333,380.3,927.667,448.089,939.857C515.879,952.048,651.457,968.095,719.247,976.119L787.036,984.143" id="L_G_H_0" class="edge-thickness-normal edge-pattern-solid edge-thickness-normal edge-pattern-solid flowchart-link" style=";" data-edge="true" data-et="edge" data-id="L_G_H_0" data-points="W3sieCI6MzgwLjMwMDAwMzA1MTc1NzgsInkiOjkxMX0seyJ4IjozODAuMzAwMDAzMDUxNzU3OCwieSI6OTM2fSx7IngiOjc5MS4wMDgzMzUxMTM1MjU0LCJ5Ijo5ODQuNjEyNzc2NDE0NDU3OH1d" marker-end="url(#graph-47_flowchart-v2-pointEnd)"></path><path d="M921.008,1039L921.008,1043.167C921.008,1047.333,921.008,1055.667,921.008,1063.333C921.008,1071,921.008,1078,921.008,1081.5L921.008,1085" id="L_H_I_0" class="edge-thickness-normal edge-pattern-solid edge-thickness-normal edge-pattern-solid flowchart-link" style=";" data-edge="true" data-et="edge" data-id="L_H_I_0" data-points="W3sieCI6OTIxLjAwODMzNTExMzUyNTQsInkiOjEwMzl9LHsieCI6OTIxLjAwODMzNTExMzUyNTQsInkiOjEwNjR9LHsieCI6OTIxLjAwODMzNTExMzUyNTQsInkiOjEwODl9XQ==" marker-end="url(#graph-47_flowchart-v2-pointEnd)"></path><path d="M921.008,1167L921.008,1171.167C921.008,1175.333,921.008,1183.667,921.008,1191.333C921.008,1199,921.008,1206,921.008,1209.5L921.008,1213" id="L_I_J_0" class="edge-thickness-normal edge-pattern-solid edge-thickness-normal edge-pattern-solid flowchart-link" style=";" data-edge="true" data-et="edge" data-id="L_I_J_0" data-points="W3sieCI6OTIxLjAwODMzNTExMzUyNTQsInkiOjExNjd9LHsieCI6OTIxLjAwODMzNTExMzUyNTQsInkiOjExOTJ9LHsieCI6OTIxLjAwODMzNTExMzUyNTQsInkiOjEyMTd9XQ==" marker-end="url(#graph-47_flowchart-v2-pointEnd)"></path><path d="M841.896,1295L829.387,1301.167C816.878,1307.333,791.86,1319.667,779.351,1337.333C766.842,1355,766.842,1378,766.842,1389.5L766.842,1401" id="L_J_K_0" class="edge-thickness-normal edge-pattern-solid edge-thickness-normal edge-pattern-solid flowchart-link" style=";" data-edge="true" data-et="edge" data-id="L_J_K_0" data-points="W3sieCI6ODQxLjg5NjQ5NDMxMzI5MDMsInkiOjEyOTV9LHsieCI6NzY2Ljg0MTY3MDk4OTk5MDIsInkiOjEzMzJ9LHsieCI6NzY2Ljg0MTY3MDk4OTk5MDIsInkiOjE0MDV9XQ==" marker-end="url(#graph-47_flowchart-v2-pointEnd)"></path><path d="M993.105,1295L1004.505,1301.167C1015.905,1307.333,1038.704,1319.667,1050.104,1331.333C1061.504,1343,1061.504,1354,1061.504,1359.5L1061.504,1365" id="L_J_L_0" class="edge-thickness-normal edge-pattern-solid edge-thickness-normal edge-pattern-solid flowchart-link" style=";" data-edge="true" data-et="edge" data-id="L_J_L_0" data-points="W3sieCI6OTkzLjEwNDg4MTY4ODE2ODIsInkiOjEyOTV9LHsieCI6MTA2MS41MDQxNjk0NjQxMTEzLCJ5IjoxMzMyfSx7IngiOjEwNjEuNTA0MTY5NDY0MTExMywieSI6MTM2OX1d" marker-end="url(#graph-47_flowchart-v2-pointEnd)"></path><path d="M1061.504,1495L1061.504,1499.167C1061.504,1503.333,1061.504,1511.667,1061.504,1519.333C1061.504,1527,1061.504,1534,1061.504,1537.5L1061.504,1541" id="L_L_M_0" class="edge-thickness-normal edge-pattern-solid edge-thickness-normal edge-pattern-solid flowchart-link" style=";" data-edge="true" data-et="edge" data-id="L_L_M_0" data-points="W3sieCI6MTA2MS41MDQxNjk0NjQxMTEzLCJ5IjoxNDk1fSx7IngiOjEwNjEuNTA0MTY5NDY0MTExMywieSI6MTUyMH0seyJ4IjoxMDYxLjUwNDE2OTQ2NDExMTMsInkiOjE1NDV9XQ==" marker-end="url(#graph-47_flowchart-v2-pointEnd)"></path><path d="M1061.504,1671L1061.504,1675.167C1061.504,1679.333,1061.504,1687.667,1061.504,1695.333C1061.504,1703,1061.504,1710,1061.504,1713.5L1061.504,1717" id="L_M_N_0" class="edge-thickness-normal edge-pattern-solid edge-thickness-normal edge-pattern-solid flowchart-link" style=";" data-edge="true" data-et="edge" data-id="L_M_N_0" data-points="W3sieCI6MTA2MS41MDQxNjk0NjQxMTEzLCJ5IjoxNjcxfSx7IngiOjEwNjEuNTA0MTY5NDY0MTExMywieSI6MTY5Nn0seyJ4IjoxMDYxLjUwNDE2OTQ2NDExMTMsInkiOjE3MjF9XQ==" marker-end="url(#graph-47_flowchart-v2-pointEnd)"></path><path d="M1061.504,1799L1061.504,1803.167C1061.504,1807.333,1061.504,1815.667,1061.504,1823.333C1061.504,1831,1061.504,1838,1061.504,1841.5L1061.504,1845" id="L_N_O_0" class="edge-thickness-normal edge-pattern-solid edge-thickness-normal edge-pattern-solid flowchart-link" style=";" data-edge="true" data-et="edge" data-id="L_N_O_0" data-points="W3sieCI6MTA2MS41MDQxNjk0NjQxMTEzLCJ5IjoxNzk5fSx7IngiOjEwNjEuNTA0MTY5NDY0MTExMywieSI6MTgyNH0seyJ4IjoxMDYxLjUwNDE2OTQ2NDExMTMsInkiOjE4NDl9XQ==" marker-end="url(#graph-47_flowchart-v2-pointEnd)"></path><path d="M1061.504,1927L1061.504,1931.167C1061.504,1935.333,1061.504,1943.667,1061.504,1951.333C1061.504,1959,1061.504,1966,1061.504,1969.5L1061.504,1973" id="L_O_P_0" class="edge-thickness-normal edge-pattern-solid edge-thickness-normal edge-pattern-solid flowchart-link" style=";" data-edge="true" data-et="edge" data-id="L_O_P_0" data-points="W3sieCI6MTA2MS41MDQxNjk0NjQxMTEzLCJ5IjoxOTI3fSx7IngiOjEwNjEuNTA0MTY5NDY0MTExMywieSI6MTk1Mn0seyJ4IjoxMDYxLjUwNDE2OTQ2NDExMTMsInkiOjE5Nzd9XQ==" marker-end="url(#graph-47_flowchart-v2-pointEnd)"></path><path d="M1014.097,2207.593L1006.815,2221.66C999.534,2235.728,984.971,2263.864,977.69,2283.432C970.408,2303,970.408,2314,970.408,2319.5L970.408,2325" id="L_P_Q_0" class="edge-thickness-normal edge-pattern-solid edge-thickness-normal edge-pattern-solid flowchart-link" style=";" data-edge="true" data-et="edge" data-id="L_P_Q_0" data-points="W3sieCI6MTAxNC4wOTY3NjI4MDg4OTYxLCJ5IjoyMjA3LjU5MjU5MzM0NDc4NDd9LHsieCI6OTcwLjQwODMzNjYzOTQwNDMsInkiOjIyOTJ9LHsieCI6OTcwLjQwODMzNjYzOTQwNDMsInkiOjIzMjl9XQ==" marker-end="url(#graph-47_flowchart-v2-pointEnd)"></path><path d="M1141.794,2174.71L1168.528,2194.258C1195.261,2213.807,1248.729,2252.903,1275.462,2285.118C1302.196,2317.333,1302.196,2342.667,1302.196,2366C1302.196,2389.333,1302.196,2410.667,1276.41,2438.903C1250.624,2467.139,1199.052,2502.279,1173.266,2519.849L1147.48,2537.418" id="L_P_R_0" class="edge-thickness-normal edge-pattern-solid edge-thickness-normal edge-pattern-solid flowchart-link" style=";" data-edge="true" data-et="edge" data-id="L_P_R_0" data-points="W3sieCI6MTE0MS43OTQwOTEzODc5NTQsInkiOjIxNzQuNzEwMDc4MDc2MTU3NX0seyJ4IjoxMzAyLjE5NTgzMTI5ODgyODEsInkiOjIyOTJ9LHsieCI6MTMwMi4xOTU4MzEyOTg4MjgxLCJ5IjoyMzY4fSx7IngiOjEzMDIuMTk1ODMxMjk4ODI4MSwieSI6MjQzMn0seyJ4IjoxMTQ0LjE3NDg2NDU4ODc2MDgsInkiOjI1MzkuNjcwNjk1MTI0NjQ5N31d" marker-end="url(#graph-47_flowchart-v2-pointEnd)"></path><path d="M970.408,2407L970.408,2411.167C970.408,2415.333,970.408,2423.667,976.994,2439.69C983.58,2455.714,996.752,2479.427,1003.338,2491.284L1009.924,2503.141" id="L_Q_R_0" class="edge-thickness-normal edge-pattern-solid edge-thickness-normal edge-pattern-solid flowchart-link" style=";" data-edge="true" data-et="edge" data-id="L_Q_R_0" data-points="W3sieCI6OTcwLjQwODMzNjYzOTQwNDMsInkiOjI0MDd9LHsieCI6OTcwLjQwODMzNjYzOTQwNDMsInkiOjI0MzJ9LHsieCI6MTAxMS44NjY2NjQxMjk2NTM4LCJ5IjoyNTA2LjYzNzUwNTMzNDQ1Nzd9XQ==" marker-end="url(#graph-47_flowchart-v2-pointEnd)"></path><path d="M1014.097,2687.593L1006.815,2701.66C999.534,2715.728,984.971,2743.864,977.69,2763.432C970.408,2783,970.408,2794,970.408,2799.5L970.408,2805" id="L_R_S_0" class="edge-thickness-normal edge-pattern-solid edge-thickness-normal edge-pattern-solid flowchart-link" style=";" data-edge="true" data-et="edge" data-id="L_R_S_0" data-points="W3sieCI6MTAxNC4wOTY3NjI4MDg4OTYxLCJ5IjoyNjg3LjU5MjU5MzM0NDc4NDd9LHsieCI6OTcwLjQwODMzNjYzOTQwNDMsInkiOjI3NzJ9LHsieCI6OTcwLjQwODMzNjYzOTQwNDMsInkiOjI4MDl9XQ==" marker-end="url(#graph-47_flowchart-v2-pointEnd)"></path><path d="M1141.658,2654.847L1168.253,2674.372C1194.848,2693.898,1248.039,2732.949,1274.634,2767.141C1301.229,2801.333,1301.229,2830.667,1301.229,2858C1301.229,2885.333,1301.229,2910.667,1272.946,2929.468C1244.663,2948.27,1188.096,2960.54,1159.813,2966.675L1131.53,2972.81" id="L_R_T_0" class="edge-thickness-normal edge-pattern-solid edge-thickness-normal edge-pattern-solid flowchart-link" style=";" data-edge="true" data-et="edge" data-id="L_R_T_0" data-points="W3sieCI6MTE0MS42NTc1NzU0MDcyODM1LCJ5IjoyNjU0Ljg0NjU5NDA1NjgyNzZ9LHsieCI6MTMwMS4yMjkxNjQxMjM1MzUyLCJ5IjoyNzcyfSx7IngiOjEzMDEuMjI5MTY0MTIzNTM1MiwieSI6Mjg2MH0seyJ4IjoxMzAxLjIyOTE2NDEyMzUzNTIsInkiOjI5MzZ9LHsieCI6MTEyNy42MjA4MzgxNjUyODMyLCJ5IjoyOTczLjY1ODI4ODI1MDg5Nn1d" marker-end="url(#graph-47_flowchart-v2-pointEnd)"></path><path d="M970.408,2911L970.408,2915.167C970.408,2919.333,970.408,2927.667,977.129,2935.67C983.849,2943.672,997.29,2951.345,1004.01,2955.181L1010.731,2959.017" id="L_S_T_0" class="edge-thickness-normal edge-pattern-solid edge-thickness-normal edge-pattern-solid flowchart-link" style=";" data-edge="true" data-et="edge" data-id="L_S_T_0" data-points="W3sieCI6OTcwLjQwODMzNjYzOTQwNDMsInkiOjI5MTF9LHsieCI6OTcwLjQwODMzNjYzOTQwNDMsInkiOjI5MzZ9LHsieCI6MTAxNC4yMDQ0MTAxMTI4MjEyLCJ5IjoyOTYxfV0=" marker-end="url(#graph-47_flowchart-v2-pointEnd)"></path><path d="M1014.204,3015L1006.905,3019.167C999.606,3023.333,985.007,3031.667,977.708,3039.333C970.408,3047,970.408,3054,970.408,3057.5L970.408,3061" id="L_T_U_0" class="edge-thickness-normal edge-pattern-solid edge-thickness-normal edge-pattern-solid flowchart-link" style=";" data-edge="true" data-et="edge" data-id="L_T_U_0" data-points="W3sieCI6MTAxNC4yMDQ0MTAxMTI4MjEyLCJ5IjozMDE1fSx7IngiOjk3MC40MDgzMzY2Mzk0MDQzLCJ5IjozMDQwfSx7IngiOjk3MC40MDgzMzY2Mzk0MDQzLCJ5IjozMDY1fV0=" marker-end="url(#graph-47_flowchart-v2-pointEnd)"></path><path d="M970.408,3143L970.408,3149.167C970.408,3155.333,970.408,3167.667,940.384,3182.236C910.36,3196.805,850.312,3213.61,820.288,3222.013L790.264,3230.415" id="L_U_V_0" class="edge-thickness-normal edge-pattern-solid edge-thickness-normal edge-pattern-solid flowchart-link" style=";" data-edge="true" data-et="edge" data-id="L_U_V_0" data-points="W3sieCI6OTcwLjQwODMzNjYzOTQwNDMsInkiOjMxNDN9LHsieCI6OTcwLjQwODMzNjYzOTQwNDMsInkiOjMxODB9LHsieCI6Nzg2LjQxMjUwMjI4ODgxODQsInkiOjMyMzEuNDkzNDI1Njc3ODYyNH1d" marker-end="url(#graph-47_flowchart-v2-pointEnd)"></path><path d="M669.537,3229L660.671,3220.833C651.806,3212.667,634.076,3196.333,625.211,3175.5C616.346,3154.667,616.346,3129.333,616.346,3106C616.346,3082.667,616.346,3061.333,616.346,3042C616.346,3022.667,616.346,3005.333,616.346,2988C616.346,2970.667,616.346,2953.333,616.346,2932C616.346,2910.667,616.346,2885.333,616.346,2858C616.346,2830.667,616.346,2801.333,616.346,2757.333C616.346,2713.333,616.346,2654.667,616.346,2598C616.346,2541.333,616.346,2486.667,616.346,2448.667C616.346,2410.667,616.346,2389.333,616.346,2366C616.346,2342.667,616.346,2317.333,616.346,2275.333C616.346,2233.333,616.346,2174.667,616.346,2118C616.346,2061.333,616.346,2006.667,616.346,1968.667C616.346,1930.667,616.346,1909.333,616.346,1888C616.346,1866.667,616.346,1845.333,616.346,1824C616.346,1802.667,616.346,1781.333,616.346,1760C616.346,1738.667,616.346,1717.333,616.346,1692C616.346,1666.667,616.346,1637.333,616.346,1608C616.346,1578.667,616.346,1549.333,616.346,1520C616.346,1490.667,616.346,1461.333,616.346,1430C616.346,1398.667,616.346,1365.333,616.346,1336C616.346,1306.667,616.346,1281.333,616.346,1258C616.346,1234.667,616.346,1213.333,616.346,1192C616.346,1170.667,616.346,1149.333,616.346,1128C616.346,1106.667,616.346,1085.333,616.346,1064C616.346,1042.667,616.346,1021.333,616.346,1000C616.346,978.667,616.346,957.333,616.346,936C616.346,914.667,616.346,893.333,616.346,870C616.346,846.667,616.346,821.333,616.346,798C616.346,774.667,616.346,753.333,616.346,732C616.346,710.667,616.346,689.333,616.346,666C616.346,642.667,616.346,617.333,616.346,594C616.346,570.667,616.346,549.333,619.782,534.987C623.219,520.641,630.092,513.282,633.528,509.603L636.965,505.923" id="L_V_C_0" class="edge-thickness-normal edge-pattern-solid edge-thickness-normal edge-pattern-solid flowchart-link" style=";" data-edge="true" data-et="edge" data-id="L_V_C_0" data-points="W3sieCI6NjY5LjUzNjYyNjExMzA4ODUsInkiOjMyMjl9LHsieCI6NjE2LjM0NTgzNjYzOTQwNDMsInkiOjMxODB9LHsieCI6NjE2LjM0NTgzNjYzOTQwNDMsInkiOjMxMDR9LHsieCI6NjE2LjM0NTgzNjYzOTQwNDMsInkiOjMwNDB9LHsieCI6NjE2LjM0NTgzNjYzOTQwNDMsInkiOjI5ODh9LHsieCI6NjE2LjM0NTgzNjYzOTQwNDMsInkiOjI5MzZ9LHsieCI6NjE2LjM0NTgzNjYzOTQwNDMsInkiOjI4NjB9LHsieCI6NjE2LjM0NTgzNjYzOTQwNDMsInkiOjI3NzJ9LHsieCI6NjE2LjM0NTgzNjYzOTQwNDMsInkiOjI1OTZ9LHsieCI6NjE2LjM0NTgzNjYzOTQwNDMsInkiOjI0MzJ9LHsieCI6NjE2LjM0NTgzNjYzOTQwNDMsInkiOjIzNjh9LHsieCI6NjE2LjM0NTgzNjYzOTQwNDMsInkiOjIyOTJ9LHsieCI6NjE2LjM0NTgzNjYzOTQwNDMsInkiOjIxMTZ9LHsieCI6NjE2LjM0NTgzNjYzOTQwNDMsInkiOjE5NTJ9LHsieCI6NjE2LjM0NTgzNjYzOTQwNDMsInkiOjE4ODh9LHsieCI6NjE2LjM0NTgzNjYzOTQwNDMsInkiOjE4MjR9LHsieCI6NjE2LjM0NTgzNjYzOTQwNDMsInkiOjE3NjB9LHsieCI6NjE2LjM0NTgzNjYzOTQwNDMsInkiOjE2OTZ9LHsieCI6NjE2LjM0NTgzNjYzOTQwNDMsInkiOjE2MDh9LHsieCI6NjE2LjM0NTgzNjYzOTQwNDMsInkiOjE1MjB9LHsieCI6NjE2LjM0NTgzNjYzOTQwNDMsInkiOjE0MzJ9LHsieCI6NjE2LjM0NTgzNjYzOTQwNDMsInkiOjEzMzJ9LHsieCI6NjE2LjM0NTgzNjYzOTQwNDMsInkiOjEyNTZ9LHsieCI6NjE2LjM0NTgzNjYzOTQwNDMsInkiOjExOTJ9LHsieCI6NjE2LjM0NTgzNjYzOTQwNDMsInkiOjExMjh9LHsieCI6NjE2LjM0NTgzNjYzOTQwNDMsInkiOjEwNjR9LHsieCI6NjE2LjM0NTgzNjYzOTQwNDMsInkiOjEwMDB9LHsieCI6NjE2LjM0NTgzNjYzOTQwNDMsInkiOjkzNn0seyJ4Ijo2MTYuMzQ1ODM2NjM5NDA0MywieSI6ODcyfSx7IngiOjYxNi4zNDU4MzY2Mzk0MDQzLCJ5Ijo3OTZ9LHsieCI6NjE2LjM0NTgzNjYzOTQwNDMsInkiOjczMn0seyJ4Ijo2MTYuMzQ1ODM2NjM5NDA0MywieSI6NjY4fSx7IngiOjYxNi4zNDU4MzY2Mzk0MDQzLCJ5Ijo1OTJ9LHsieCI6NjE2LjM0NTgzNjYzOTQwNDMsInkiOjUyOH0seyJ4Ijo2MzkuNjk1MTk1MTI0Njk5NSwieSI6NTAzfV0=" marker-end="url(#graph-47_flowchart-v2-pointEnd)"></path><path d="M1127.621,3006.265L1147.973,3011.888C1168.325,3017.51,1209.029,3028.755,1229.381,3039.878C1249.733,3051,1249.733,3062,1249.733,3067.5L1249.733,3073" id="L_T_W_0" class="edge-thickness-normal edge-pattern-solid edge-thickness-normal edge-pattern-solid flowchart-link" style=";" data-edge="true" data-et="edge" data-id="L_T_W_0" data-points="W3sieCI6MTEyNy42MjA4MzgxNjUyODMyLCJ5IjozMDA2LjI2NTMyNDU0OTgzNzN9LHsieCI6MTI0OS43MzMzMzM1ODc2NDY1LCJ5IjozMDQwfSx7IngiOjEyNDkuNzMzMzMzNTg3NjQ2NSwieSI6MzA3N31d" marker-end="url(#graph-47_flowchart-v2-pointEnd)"></path><path d="M1249.733,3131L1249.733,3139.167C1249.733,3147.333,1249.733,3163.667,1252.551,3177.405C1255.369,3191.143,1261.004,3202.287,1263.822,3207.859L1266.639,3213.43" id="L_W_X_0" class="edge-thickness-normal edge-pattern-solid edge-thickness-normal edge-pattern-solid flowchart-link" style=";" data-edge="true" data-et="edge" data-id="L_W_X_0" data-points="W3sieCI6MTI0OS43MzMzMzM1ODc2NDY1LCJ5IjozMTMxfSx7IngiOjEyNDkuNzMzMzMzNTg3NjQ2NSwieSI6MzE4MH0seyJ4IjoxMjY4LjQ0NDI5ODk5NTE2ODUsInkiOjMyMTd9XQ==" marker-end="url(#graph-47_flowchart-v2-pointEnd)"></path><path d="M1347.554,3217L1356.944,3210.833C1366.335,3204.667,1385.115,3192.333,1394.506,3173.5C1403.896,3154.667,1403.896,3129.333,1403.896,3106C1403.896,3082.667,1403.896,3061.333,1403.896,3042C1403.896,3022.667,1403.896,3005.333,1403.896,2988C1403.896,2970.667,1403.896,2953.333,1403.896,2932C1403.896,2910.667,1403.896,2885.333,1403.896,2858C1403.896,2830.667,1403.896,2801.333,1403.896,2757.333C1403.896,2713.333,1403.896,2654.667,1403.896,2598C1403.896,2541.333,1403.896,2486.667,1403.896,2448.667C1403.896,2410.667,1403.896,2389.333,1403.896,2366C1403.896,2342.667,1403.896,2317.333,1403.896,2275.333C1403.896,2233.333,1403.896,2174.667,1403.896,2118C1403.896,2061.333,1403.896,2006.667,1403.896,1968.667C1403.896,1930.667,1403.896,1909.333,1403.896,1888C1403.896,1866.667,1403.896,1845.333,1403.896,1824C1403.896,1802.667,1403.896,1781.333,1403.896,1760C1403.896,1738.667,1403.896,1717.333,1403.896,1692C1403.896,1666.667,1403.896,1637.333,1403.896,1608C1403.896,1578.667,1403.896,1549.333,1403.896,1520C1403.896,1490.667,1403.896,1461.333,1403.896,1430C1403.896,1398.667,1403.896,1365.333,1403.896,1336C1403.896,1306.667,1403.896,1281.333,1403.896,1258C1403.896,1234.667,1403.896,1213.333,1403.896,1192C1403.896,1170.667,1403.896,1149.333,1403.896,1128C1403.896,1106.667,1403.896,1085.333,1403.896,1064C1403.896,1042.667,1403.896,1021.333,1403.896,1000C1403.896,978.667,1403.896,957.333,1403.896,936C1403.896,914.667,1403.896,893.333,1403.896,870C1403.896,846.667,1403.896,821.333,1403.896,798C1403.896,774.667,1403.896,753.333,1403.896,732C1403.896,710.667,1403.896,689.333,1403.896,666C1403.896,642.667,1403.896,617.333,1403.896,594C1403.896,570.667,1403.896,549.333,1296.975,531.143C1190.054,512.953,976.211,497.905,869.29,490.381L762.369,482.858" id="L_X_C_0" class="edge-thickness-normal edge-pattern-solid edge-thickness-normal edge-pattern-solid flowchart-link" style=";" data-edge="true" data-et="edge" data-id="L_X_C_0" data-points="W3sieCI6MTM0Ny41NTQwMDIxNTk1MjAyLCJ5IjozMjE3fSx7IngiOjE0MDMuODk1ODMyMDYxNzY3NiwieSI6MzE4MH0seyJ4IjoxNDAzLjg5NTgzMjA2MTc2NzYsInkiOjMxMDR9LHsieCI6MTQwMy44OTU4MzIwNjE3Njc2LCJ5IjozMDQwfSx7IngiOjE0MDMuODk1ODMyMDYxNzY3NiwieSI6Mjk4OH0seyJ4IjoxNDAzLjg5NTgzMjA2MTc2NzYsInkiOjI5MzZ9LHsieCI6MTQwMy44OTU4MzIwNjE3Njc2LCJ5IjoyODYwfSx7IngiOjE0MDMuODk1ODMyMDYxNzY3NiwieSI6Mjc3Mn0seyJ4IjoxNDAzLjg5NTgzMjA2MTc2NzYsInkiOjI1OTZ9LHsieCI6MTQwMy44OTU4MzIwNjE3Njc2LCJ5IjoyNDMyfSx7IngiOjE0MDMuODk1ODMyMDYxNzY3NiwieSI6MjM2OH0seyJ4IjoxNDAzLjg5NTgzMjA2MTc2NzYsInkiOjIyOTJ9LHsieCI6MTQwMy44OTU4MzIwNjE3Njc2LCJ5IjoyMTE2fSx7IngiOjE0MDMuODk1ODMyMDYxNzY3NiwieSI6MTk1Mn0seyJ4IjoxNDAzLjg5NTgzMjA2MTc2NzYsInkiOjE4ODh9LHsieCI6MTQwMy44OTU4MzIwNjE3Njc2LCJ5IjoxODI0fSx7IngiOjE0MDMuODk1ODMyMDYxNzY3NiwieSI6MTc2MH0seyJ4IjoxNDAzLjg5NTgzMjA2MTc2NzYsInkiOjE2OTZ9LHsieCI6MTQwMy44OTU4MzIwNjE3Njc2LCJ5IjoxNjA4fSx7IngiOjE0MDMuODk1ODMyMDYxNzY3NiwieSI6MTUyMH0seyJ4IjoxNDAzLjg5NTgzMjA2MTc2NzYsInkiOjE0MzJ9LHsieCI6MTQwMy44OTU4MzIwNjE3Njc2LCJ5IjoxMzMyfSx7IngiOjE0MDMuODk1ODMyMDYxNzY3NiwieSI6MTI1Nn0seyJ4IjoxNDAzLjg5NTgzMjA2MTc2NzYsInkiOjExOTJ9LHsieCI6MTQwMy44OTU4MzIwNjE3Njc2LCJ5IjoxMTI4fSx7IngiOjE0MDMuODk1ODMyMDYxNzY3NiwieSI6MTA2NH0seyJ4IjoxNDAzLjg5NTgzMjA2MTc2NzYsInkiOjEwMDB9LHsieCI6MTQwMy44OTU4MzIwNjE3Njc2LCJ5Ijo5MzZ9LHsieCI6MTQwMy44OTU4MzIwNjE3Njc2LCJ5Ijo4NzJ9LHsieCI6MTQwMy44OTU4MzIwNjE3Njc2LCJ5Ijo3OTZ9LHsieCI6MTQwMy44OTU4MzIwNjE3Njc2LCJ5Ijo3MzJ9LHsieCI6MTQwMy44OTU4MzIwNjE3Njc2LCJ5Ijo2Njh9LHsieCI6MTQwMy44OTU4MzIwNjE3Njc2LCJ5Ijo1OTJ9LHsieCI6MTQwMy44OTU4MzIwNjE3Njc2LCJ5Ijo1Mjh9LHsieCI6NzU4LjM3OTE2OTQ2NDExMTMsInkiOjQ4Mi41NzY5NjM5MTQyMDQzfV0=" marker-end="url(#graph-47_flowchart-v2-pointEnd)"></path></g><g class="edgeLabels"><g class="edgeLabel"><g class="label" data-id="L_A_B_0" transform="translate(0, 0)"><foreignObject width="0" height="0"><div style="display: table-cell; white-space: nowrap; line-height: 1.5; max-width: 200px; text-align: center;" xmlns="http://www.w3.org/1999/xhtml" class="labelBkg"><span class="edgeLabel"></span></div></foreignObject></g></g><g class="edgeLabel" transform="translate(664.9125022888184, 412)"><g class="label" data-id="L_B_C_0" transform="translate(-9.400001525878906, -12)"><foreignObject width="18.800003051757812" height="24"><div style="display: table-cell; white-space: nowrap; line-height: 1.5; max-width: 200px; text-align: center;" xmlns="http://www.w3.org/1999/xhtml" class="labelBkg"><span class="edgeLabel"><p>No</p></span></div></foreignObject></g></g><g class="edgeLabel"><g class="label" data-id="L_C_D_0" transform="translate(0, 0)"><foreignObject width="0" height="0"><div style="display: table-cell; white-space: nowrap; line-height: 1.5; max-width: 200px; text-align: center;" xmlns="http://www.w3.org/1999/xhtml" class="labelBkg"><span class="edgeLabel"></span></div></foreignObject></g></g><g class="edgeLabel"><g class="label" data-id="L_D_E_0" transform="translate(0, 0)"><foreignObject width="0" height="0"><div style="display: table-cell; white-space: nowrap; line-height: 1.5; max-width: 200px; text-align: center;" xmlns="http://www.w3.org/1999/xhtml" class="labelBkg"><span class="edgeLabel"></span></div></foreignObject></g></g><g class="edgeLabel" transform="translate(104.1500015258789, 796)"><g class="label" data-id="L_E_F_0" transform="translate(-17.900001525878906, -12)"><foreignObject width="35.80000305175781" height="24"><div style="display: table-cell; white-space: nowrap; line-height: 1.5; max-width: 200px; text-align: center;" xmlns="http://www.w3.org/1999/xhtml" class="labelBkg"><span class="edgeLabel"><p>Error</p></span></div></foreignObject></g></g><g class="edgeLabel"><g class="label" data-id="L_F_D_0" transform="translate(0, 0)"><foreignObject width="0" height="0"><div style="display: table-cell; white-space: nowrap; line-height: 1.5; max-width: 200px; text-align: center;" xmlns="http://www.w3.org/1999/xhtml" class="labelBkg"><span class="edgeLabel"></span></div></foreignObject></g></g><g class="edgeLabel" transform="translate(379.2541694641113, 796)"><g class="label" data-id="L_E_G_0" transform="translate(-26.991668701171875, -12)"><foreignObject width="53.98333740234375" height="24"><div style="display: table-cell; white-space: nowrap; line-height: 1.5; max-width: 200px; text-align: center;" xmlns="http://www.w3.org/1999/xhtml" class="labelBkg"><span class="edgeLabel"><p>Success</p></span></div></foreignObject></g></g><g class="edgeLabel" transform="translate(1435.2291679382324, 668)"><g class="label" data-id="L_B_H_0" transform="translate(-11.333335876464844, -12)"><foreignObject width="22.666671752929688" height="24"><div style="display: table-cell; white-space: nowrap; line-height: 1.5; max-width: 200px; text-align: center;" xmlns="http://www.w3.org/1999/xhtml" class="labelBkg"><span class="edgeLabel"><p>Yes</p></span></div></foreignObject></g></g><g class="edgeLabel"><g class="label" data-id="L_G_H_0" transform="translate(0, 0)"><foreignObject width="0" height="0"><div style="display: table-cell; white-space: nowrap; line-height: 1.5; max-width: 200px; text-align: center;" xmlns="http://www.w3.org/1999/xhtml" class="labelBkg"><span class="edgeLabel"></span></div></foreignObject></g></g><g class="edgeLabel"><g class="label" data-id="L_H_I_0" transform="translate(0, 0)"><foreignObject width="0" height="0"><div style="display: table-cell; white-space: nowrap; line-height: 1.5; max-width: 200px; text-align: center;" xmlns="http://www.w3.org/1999/xhtml" class="labelBkg"><span class="edgeLabel"></span></div></foreignObject></g></g><g class="edgeLabel"><g class="label" data-id="L_I_J_0" transform="translate(0, 0)"><foreignObject width="0" height="0"><div style="display: table-cell; white-space: nowrap; line-height: 1.5; max-width: 200px; text-align: center;" xmlns="http://www.w3.org/1999/xhtml" class="labelBkg"><span class="edgeLabel"></span></div></foreignObject></g></g><g class="edgeLabel" transform="translate(766.8416709899902, 1332)"><g class="label" data-id="L_J_K_0" transform="translate(-29.90833282470703, -12)"><foreignObject width="59.81666564941406" height="24"><div style="display: table-cell; white-space: nowrap; line-height: 1.5; max-width: 200px; text-align: center;" xmlns="http://www.w3.org/1999/xhtml" class="labelBkg"><span class="edgeLabel"><p>No orgId</p></span></div></foreignObject></g></g><g class="edgeLabel" transform="translate(1061.5041694641113, 1332)"><g class="label" data-id="L_J_L_0" transform="translate(-33.18333435058594, -12)"><foreignObject width="66.36666870117188" height="24"><div style="display: table-cell; white-space: nowrap; line-height: 1.5; max-width: 200px; text-align: center;" xmlns="http://www.w3.org/1999/xhtml" class="labelBkg"><span class="edgeLabel"><p>Has orgId</p></span></div></foreignObject></g></g><g class="edgeLabel"><g class="label" data-id="L_L_M_0" transform="translate(0, 0)"><foreignObject width="0" height="0"><div style="display: table-cell; white-space: nowrap; line-height: 1.5; max-width: 200px; text-align: center;" xmlns="http://www.w3.org/1999/xhtml" class="labelBkg"><span class="edgeLabel"></span></div></foreignObject></g></g><g class="edgeLabel"><g class="label" data-id="L_M_N_0" transform="translate(0, 0)"><foreignObject width="0" height="0"><div style="display: table-cell; white-space: nowrap; line-height: 1.5; max-width: 200px; text-align: center;" xmlns="http://www.w3.org/1999/xhtml" class="labelBkg"><span class="edgeLabel"></span></div></foreignObject></g></g><g class="edgeLabel"><g class="label" data-id="L_N_O_0" transform="translate(0, 0)"><foreignObject width="0" height="0"><div style="display: table-cell; white-space: nowrap; line-height: 1.5; max-width: 200px; text-align: center;" xmlns="http://www.w3.org/1999/xhtml" class="labelBkg"><span class="edgeLabel"></span></div></foreignObject></g></g><g class="edgeLabel"><g class="label" data-id="L_O_P_0" transform="translate(0, 0)"><foreignObject width="0" height="0"><div style="display: table-cell; white-space: nowrap; line-height: 1.5; max-width: 200px; text-align: center;" xmlns="http://www.w3.org/1999/xhtml" class="labelBkg"><span class="edgeLabel"></span></div></foreignObject></g></g><g class="edgeLabel" transform="translate(970.4083366394043, 2292)"><g class="label" data-id="L_P_Q_0" transform="translate(-11.333335876464844, -12)"><foreignObject width="22.666671752929688" height="24"><div style="display: table-cell; white-space: nowrap; line-height: 1.5; max-width: 200px; text-align: center;" xmlns="http://www.w3.org/1999/xhtml" class="labelBkg"><span class="edgeLabel"><p>Yes</p></span></div></foreignObject></g></g><g class="edgeLabel" transform="translate(1302.1958312988281, 2368)"><g class="label" data-id="L_P_R_0" transform="translate(-9.400001525878906, -12)"><foreignObject width="18.800003051757812" height="24"><div style="display: table-cell; white-space: nowrap; line-height: 1.5; max-width: 200px; text-align: center;" xmlns="http://www.w3.org/1999/xhtml" class="labelBkg"><span class="edgeLabel"><p>No</p></span></div></foreignObject></g></g><g class="edgeLabel"><g class="label" data-id="L_Q_R_0" transform="translate(0, 0)"><foreignObject width="0" height="0"><div style="display: table-cell; white-space: nowrap; line-height: 1.5; max-width: 200px; text-align: center;" xmlns="http://www.w3.org/1999/xhtml" class="labelBkg"><span class="edgeLabel"></span></div></foreignObject></g></g><g class="edgeLabel" transform="translate(970.4083366394043, 2772)"><g class="label" data-id="L_R_S_0" transform="translate(-9.400001525878906, -12)"><foreignObject width="18.800003051757812" height="24"><div style="display: table-cell; white-space: nowrap; line-height: 1.5; max-width: 200px; text-align: center;" xmlns="http://www.w3.org/1999/xhtml" class="labelBkg"><span class="edgeLabel"><p>No</p></span></div></foreignObject></g></g><g class="edgeLabel" transform="translate(1301.2291641235352, 2860)"><g class="label" data-id="L_R_T_0" transform="translate(-11.333335876464844, -12)"><foreignObject width="22.666671752929688" height="24"><div style="display: table-cell; white-space: nowrap; line-height: 1.5; max-width: 200px; text-align: center;" xmlns="http://www.w3.org/1999/xhtml" class="labelBkg"><span class="edgeLabel"><p>Yes</p></span></div></foreignObject></g></g><g class="edgeLabel"><g class="label" data-id="L_S_T_0" transform="translate(0, 0)"><foreignObject width="0" height="0"><div style="display: table-cell; white-space: nowrap; line-height: 1.5; max-width: 200px; text-align: center;" xmlns="http://www.w3.org/1999/xhtml" class="labelBkg"><span class="edgeLabel"></span></div></foreignObject></g></g><g class="edgeLabel"><g class="label" data-id="L_T_U_0" transform="translate(0, 0)"><foreignObject width="0" height="0"><div style="display: table-cell; white-space: nowrap; line-height: 1.5; max-width: 200px; text-align: center;" xmlns="http://www.w3.org/1999/xhtml" class="labelBkg"><span class="edgeLabel"></span></div></foreignObject></g></g><g class="edgeLabel" transform="translate(970.4083366394043, 3180)"><g class="label" data-id="L_U_V_0" transform="translate(-99.25833129882812, -12)"><foreignObject width="198.51666259765625" height="24"><div style="display: table-cell; white-space: nowrap; line-height: 1.5; max-width: 200px; text-align: center;" xmlns="http://www.w3.org/1999/xhtml" class="labelBkg"><span class="edgeLabel"><p>Token expired / invalidated</p></span></div></foreignObject></g></g><g class="edgeLabel"><g class="label" data-id="L_V_C_0" transform="translate(0, 0)"><foreignObject width="0" height="0"><div style="display: table-cell; white-space: nowrap; line-height: 1.5; max-width: 200px; text-align: center;" xmlns="http://www.w3.org/1999/xhtml" class="labelBkg"><span class="edgeLabel"></span></div></foreignObject></g></g><g class="edgeLabel"><g class="label" data-id="L_T_W_0" transform="translate(0, 0)"><foreignObject width="0" height="0"><div style="display: table-cell; white-space: nowrap; line-height: 1.5; max-width: 200px; text-align: center;" xmlns="http://www.w3.org/1999/xhtml" class="labelBkg"><span class="edgeLabel"></span></div></foreignObject></g></g><g class="edgeLabel"><g class="label" data-id="L_W_X_0" transform="translate(0, 0)"><foreignObject width="0" height="0"><div style="display: table-cell; white-space: nowrap; line-height: 1.5; max-width: 200px; text-align: center;" xmlns="http://www.w3.org/1999/xhtml" class="labelBkg"><span class="edgeLabel"></span></div></foreignObject></g></g><g class="edgeLabel"><g class="label" data-id="L_X_C_0" transform="translate(0, 0)"><foreignObject width="0" height="0"><div style="display: table-cell; white-space: nowrap; line-height: 1.5; max-width: 200px; text-align: center;" xmlns="http://www.w3.org/1999/xhtml" class="labelBkg"><span class="edgeLabel"></span></div></foreignObject></g></g></g><g class="nodes"><g class="node default" id="flowchart-A-0" transform="translate(989.7416687011719, 27.5)"><g class="basic label-container outer-path"><path d="M-35.01667022705078 -19.5 C-18.69790401956542 -19.5, -2.37913781208006 -19.5, 35.01667022705078 -19.5 C35.01667022705078 -19.5, 35.01667022705078 -19.5, 35.01667022705078 -19.5 C35.28832151861859 -19.491288671816584, 35.559972810186395 -19.482577343633167, 36.26603951667468 -19.45993515863156 C36.742333355676486 -19.413987664810204, 37.2186271946783 -19.36804017098885, 37.510274879898645 -19.3399052695533 C37.91288379139843 -19.274814583020753, 38.31549270289821 -19.20972389648821, 38.74426348672754 -19.140403561325773 C38.99710174725524 -19.08269487828417, 39.24994000778294 -19.024986195242565, 39.96293461328617 -18.862249829261074 C40.39755569894962 -18.7332565724088, 40.83217678461306 -18.604263315556523, 41.16128047851139 -18.50658706670804 C41.5124835759367 -18.37734108036968, 41.86368667336201 -18.24809509403132, 42.33437682219858 -18.074876768247425 C42.61961705309206 -17.948609379381697, 42.904857283985535 -17.822341990515973, 43.47740313984316 -17.568892924097174 C43.79972612641656 -17.40073722845956, 44.12204911298996 -17.232581532821943, 44.585662491127565 -16.990714730406097 C44.903712638553635 -16.797910861966283, 45.221762785979706 -16.60510699352647, 45.654600800656475 -16.342718045390892 C45.88214794821902 -16.183991005608522, 46.10969509578156 -16.02526396582615, 46.67982557162949 -15.627565626425154 C46.952804492644326 -15.409872201189993, 47.22578341365916 -15.192178775954833, 47.65712393555265 -14.848196188198123 C47.89355753994676 -14.633473444377758, 48.129991144340885 -14.418750700557393, 48.58247996381877 -14.007812326905688 C48.790232883638716 -13.793290380359661, 48.99798580345866 -13.578768433813632, 49.45209117001943 -13.10986736009568 C49.64627157558008 -12.881772006546056, 49.840451981140724 -12.653676652996431, 50.262384135177356 -12.158051136245305 C50.44133867398228 -11.918268357340576, 50.62029321278721 -11.678485578435849, 51.010029191691416 -11.156274872382312 C51.20718178718877 -10.853395542813784, 51.40433438268612 -10.550516213245254, 51.69195410565503 -10.108655082055241 C51.894702283057605 -9.748655162597759, 52.09745046046018 -9.388655243140274, 52.305356701324285 -9.019496659696287 C52.461951712513496 -8.694323768365404, 52.61854672370271 -8.369150877034519, 52.84771637585912 -7.893275190886684 C53.02248906356683 -7.461583273248601, 53.19726175127454 -7.029891355610518, 53.31680445702111 -6.734618561215508 C53.466042778400926 -6.285136515116909, 53.61528109978074 -5.835654469018309, 53.71069336126566 -5.548287939305138 C53.80884586236211 -5.173989913061314, 53.906998363458555 -4.799691886817491, 54.02776451459634 -4.339158212148133 C54.096728094502396 -3.985044804788318, 54.16569167440845 -3.630931397428503, 54.266715003632555 -3.1121979531509023 C54.32468440007276 -2.6625987617127747, 54.38265379651297 -2.212999570274647, 54.42656292956015 -1.872449005199798 C54.451108779956726 -1.4901275722193166, 54.4756546303533 -1.107806139238835, 54.5066514429642 -0.6250057626472757 C54.5066514429642 -0.3060904379067323, 54.5066514429642 0.012824886833811111, 54.5066514429642 0.625005762647271 C54.488676969542496 0.9049726949241296, 54.470702496120786 1.184939627200988, 54.42656292956015 1.8724490051997846 C54.37364933234135 2.282836416257158, 54.32073573512255 2.693223827314532, 54.266715003632555 3.1121979531508885 C54.191496647425126 3.49842831487085, 54.11627829121769 3.8846586765908113, 54.02776451459634 4.339158212148129 C53.95541129553441 4.615072394514791, 53.88305807647247 4.890986576881453, 53.71069336126567 5.548287939305125 C53.61207346934816 5.845315340814739, 53.51345357743065 6.142342742324352, 53.31680445702111 6.734618561215495 C53.17280641378112 7.090296512031038, 53.02880837054113 7.445974462846582, 52.84771637585912 7.893275190886679 C52.64082780423605 8.322883736568283, 52.43393923261298 8.752492282249886, 52.305356701324285 9.019496659696284 C52.16183840292558 9.27432793130678, 52.01832010452687 9.529159202917278, 51.69195410565503 10.108655082055236 C51.421688673381425 10.523855362457718, 51.15142324110782 10.9390556428602, 51.01002919169142 11.156274872382301 C50.80343188882429 11.433096436822774, 50.59683458595716 11.709918001263247, 50.26238413517736 12.158051136245302 C50.053355286676485 12.403588315772858, 49.84432643817561 12.649125495300412, 49.45209117001944 13.10986736009567 C49.21314018539848 13.356603869957503, 48.974189200777516 13.603340379819334, 48.58247996381877 14.007812326905684 C48.373775754154245 14.197351968112214, 48.16507154448973 14.386891609318742, 47.65712393555267 14.848196188198111 C47.28230437468833 15.147104813620007, 46.90748481382399 15.446013439041904, 46.67982557162949 15.627565626425152 C46.29626040912184 15.895124079522217, 45.9126952466142 16.162682532619282, 45.65460080065649 16.34271804539089 C45.36114588758656 16.52061213822637, 45.06769097451664 16.698506231061845, 44.585662491127565 16.990714730406093 C44.25643363685578 17.162473212798538, 43.927204782584 17.334231695190983, 43.47740313984317 17.56889292409717 C43.109126843504086 17.731917915958302, 42.740850547164996 17.894942907819434, 42.334376822198585 18.07487676824742 C41.89127070091577 18.237943916907582, 41.448164579632945 18.401011065567744, 41.1612804785114 18.506587066708033 C40.7842712523532 18.618481426069977, 40.407262026195 18.73037578543192, 39.962934613286194 18.86224982926107 C39.53142895581445 18.960738179741426, 39.0999232983427 19.059226530221785, 38.74426348672755 19.140403561325773 C38.32891779450183 19.207553431790878, 37.913572102276106 19.274703302255983, 37.51027487989866 19.3399052695533 C37.240674093789245 19.365913333146892, 36.97107330767982 19.391921396740482, 36.26603951667468 19.45993515863156 C35.80057514025531 19.47486169521188, 35.33511076383594 19.489788231792204, 35.01667022705079 19.5 C35.01667022705079 19.5, 35.01667022705078 19.5, 35.01667022705078 19.5 C20.453974156911976 19.5, 5.891278086773173 19.5, -35.016670227050774 19.5 C-35.39259773655601 19.487944736468673, -35.76852524606125 19.47588947293735, -36.266039516674674 19.45993515863156 C-36.64503803179419 19.42337362769038, -37.024036546913706 19.386812096749203, -37.51027487989865 19.3399052695533 C-37.87862185264378 19.2803537875733, -38.24696882538891 19.220802305593306, -38.74426348672754 19.140403561325773 C-39.15346802836415 19.047005295006404, -39.562672570000764 18.953607028687035, -39.962934613286166 18.862249829261074 C-40.25106502226169 18.776734236304517, -40.539195431237225 18.691218643347963, -41.16128047851137 18.506587066708043 C-41.57116635427939 18.35574527548191, -41.9810522300474 18.204903484255784, -42.33437682219858 18.074876768247425 C-42.63467990849658 17.941941500117846, -42.93498299479458 17.809006231988267, -43.47740313984316 17.568892924097174 C-43.76120681646135 17.420832727790394, -44.045010493079545 17.272772531483614, -44.585662491127565 16.990714730406097 C-44.97007436623004 16.75768199266405, -45.3544862413325 16.524649254922004, -45.65460080065647 16.3427180453909 C-45.86996887496756 16.192486599885154, -46.08533694927866 16.042255154379408, -46.67982557162949 15.627565626425156 C-47.00203189957614 15.370614654158187, -47.324238227522784 15.113663681891218, -47.65712393555265 14.848196188198125 C-47.8892636738124 14.637373019991518, -48.121403412072155 14.426549851784909, -48.582479963818756 14.007812326905695 C-48.79474985240401 13.788626239259457, -49.007019740989264 13.569440151613222, -49.452091170019436 13.109867360095677 C-49.761924608928766 12.745919372730667, -50.071758047838095 12.381971385365656, -50.262384135177356 12.158051136245307 C-50.50395919961089 11.834362557845491, -50.74553426404442 11.510673979445675, -51.010029191691416 11.156274872382316 C-51.158180960945415 10.928673970487802, -51.30633273019941 10.701073068593288, -51.69195410565503 10.108655082055249 C-51.936045606800576 9.675245904826628, -52.18013710794612 9.241836727598008, -52.305356701324285 9.019496659696289 C-52.50068865584027 8.61388567670955, -52.69602061035626 8.208274693722812, -52.84771637585912 7.893275190886686 C-52.95667473493356 7.62414593740626, -53.065633094008 7.355016683925832, -53.31680445702111 6.73461856121551 C-53.47385050819373 6.26162087697378, -53.630896559366356 5.788623192732048, -53.71069336126566 5.5482879393051325 C-53.82739711374337 5.103245951381354, -53.94410086622108 4.658203963457577, -54.02776451459634 4.339158212148136 C-54.076824453803766 4.087245793139838, -54.12588439301119 3.8353333741315394, -54.266715003632555 3.112197953150904 C-54.326692312387785 2.6470257903046255, -54.38666962114301 2.1818536274583464, -54.42656292956015 1.872449005199809 C-54.445374766222095 1.579439464548797, -54.464186602884034 1.286429923897785, -54.5066514429642 0.6250057626472781 C-54.5066514429642 0.2680777111008525, -54.5066514429642 -0.08885034044557316, -54.5066514429642 -0.6250057626472687 C-54.48940934635478 -0.8935653349088254, -54.47216724974536 -1.162124907170382, -54.42656292956015 -1.8724490051997822 C-54.3790198839917 -2.241183478192371, -54.331476838423264 -2.60991795118496, -54.266715003632555 -3.112197953150895 C-54.18769311433084 -3.5179586534330003, -54.10867122502912 -3.923719353715106, -54.02776451459634 -4.339158212148126 C-53.93143550211404 -4.706502486001258, -53.835106489631734 -5.07384675985439, -53.71069336126567 -5.548287939305123 C-53.56528672541997 -5.986229559071134, -53.41988008957427 -6.424171178837145, -53.316804457021114 -6.734618561215485 C-53.16241088850775 -7.115973660440073, -53.00801731999439 -7.497328759664661, -52.84771637585912 -7.893275190886678 C-52.705617960629155 -8.18834559053073, -52.56351954539918 -8.483415990174784, -52.305356701324285 -9.019496659696282 C-52.07064067589004 -9.436258730429628, -51.835924650455794 -9.853020801162975, -51.69195410565503 -10.108655082055243 C-51.44075241797392 -10.494568331431456, -51.18955073029281 -10.88048158080767, -51.01002919169142 -11.156274872382308 C-50.80001490320206 -11.437674886262771, -50.5900006147127 -11.719074900143234, -50.26238413517736 -12.158051136245302 C-50.03102173661383 -12.429822574491455, -49.79965933805029 -12.70159401273761, -49.45209117001944 -13.109867360095668 C-49.22464415089921 -13.344725081084864, -48.997197131778975 -13.579582802074057, -48.58247996381878 -14.007812326905677 C-48.23687707225289 -14.32167972887439, -47.891274180687 -14.635547130843102, -47.65712393555267 -14.848196188198107 C-47.31414163114147 -15.121715448823608, -46.971159326730266 -15.395234709449106, -46.6798255716295 -15.627565626425149 C-46.442993516756175 -15.792769415610364, -46.20616146188285 -15.957973204795579, -45.654600800656496 -16.342718045390885 C-45.352651657796464 -16.52576139024276, -45.05070251493643 -16.70880473509464, -44.58566249112757 -16.99071473040609 C-44.335995915490024 -17.120965622997126, -44.086329339852476 -17.251216515588162, -43.47740313984317 -17.56889292409717 C-43.1631429689453 -17.708006579556905, -42.84888279804744 -17.84712023501664, -42.334376822198585 -18.07487676824742 C-41.88035952878158 -18.24195932911473, -41.42634223536459 -18.409041889982042, -41.1612804785114 -18.506587066708033 C-40.902618094208 -18.58335670462272, -40.6439557099046 -18.660126342537406, -39.962934613286194 -18.862249829261067 C-39.592701139366646 -18.946753203684, -39.2224676654471 -19.031256578106934, -38.74426348672755 -19.140403561325773 C-38.349625253903014 -19.20420561034364, -37.95498702107848 -19.26800765936151, -37.51027487989866 -19.3399052695533 C-37.12992239452404 -19.376597416376597, -36.749569909149415 -19.4132895631999, -36.26603951667468 -19.45993515863156 C-35.88672929587263 -19.472098899130124, -35.50741907507058 -19.484262639628692, -35.01667022705079 -19.5 C-35.01667022705079 -19.5, -35.01667022705079 -19.5, -35.01667022705078 -19.5" stroke="none" stroke-width="0" fill="#1f2020" style=""></path><path d="M-35.01667022705078 -19.5 C-12.382412502966098 -19.5, 10.251845221118586 -19.5, 35.01667022705078 -19.5 M-35.01667022705078 -19.5 C-16.41698560894125 -19.5, 2.1826990091682816 -19.5, 35.01667022705078 -19.5 M35.01667022705078 -19.5 C35.01667022705078 -19.5, 35.01667022705078 -19.5, 35.01667022705078 -19.5 M35.01667022705078 -19.5 C35.01667022705078 -19.5, 35.01667022705078 -19.5, 35.01667022705078 -19.5 M35.01667022705078 -19.5 C35.38138641914912 -19.488304261596408, 35.746102611247466 -19.476608523192816, 36.26603951667468 -19.45993515863156 M35.01667022705078 -19.5 C35.32747393107975 -19.4900331301545, 35.638277635108714 -19.480066260309002, 36.26603951667468 -19.45993515863156 M36.26603951667468 -19.45993515863156 C36.5687330635263 -19.430734676209035, 36.871426610377924 -19.40153419378651, 37.510274879898645 -19.3399052695533 M36.26603951667468 -19.45993515863156 C36.58655722690454 -19.429015200604628, 36.90707493713439 -19.3980952425777, 37.510274879898645 -19.3399052695533 M37.510274879898645 -19.3399052695533 C37.7740993510739 -19.297252175043013, 38.037923822249155 -19.25459908053273, 38.74426348672754 -19.140403561325773 M37.510274879898645 -19.3399052695533 C37.77400648904352 -19.29726718825593, 38.037738098188406 -19.25462910695856, 38.74426348672754 -19.140403561325773 M38.74426348672754 -19.140403561325773 C39.097153936212315 -19.059858619056268, 39.45004438569708 -18.979313676786763, 39.96293461328617 -18.862249829261074 M38.74426348672754 -19.140403561325773 C39.07354713548637 -19.065246717273194, 39.4028307842452 -18.99008987322061, 39.96293461328617 -18.862249829261074 M39.96293461328617 -18.862249829261074 C40.38964322866302 -18.735604952056455, 40.81635184403986 -18.60896007485184, 41.16128047851139 -18.50658706670804 M39.96293461328617 -18.862249829261074 C40.43333654910307 -18.72263700390077, 40.90373848491996 -18.583024178540462, 41.16128047851139 -18.50658706670804 M41.16128047851139 -18.50658706670804 C41.419205880747036 -18.411668134449037, 41.67713128298269 -18.316749202190035, 42.33437682219858 -18.074876768247425 M41.16128047851139 -18.50658706670804 C41.444521220470826 -18.40235185541825, 41.72776196243026 -18.29811664412846, 42.33437682219858 -18.074876768247425 M42.33437682219858 -18.074876768247425 C42.778268140094546 -17.87837924938298, 43.222159457990514 -17.681881730518537, 43.47740313984316 -17.568892924097174 M42.33437682219858 -18.074876768247425 C42.62492259748713 -17.946260772261382, 42.91546837277568 -17.81764477627534, 43.47740313984316 -17.568892924097174 M43.47740313984316 -17.568892924097174 C43.81386968883325 -17.393358541006155, 44.15033623782334 -17.217824157915135, 44.585662491127565 -16.990714730406097 M43.47740313984316 -17.568892924097174 C43.89250138173254 -17.3523364371866, 44.30759962362191 -17.135779950276028, 44.585662491127565 -16.990714730406097 M44.585662491127565 -16.990714730406097 C44.880956512224074 -16.811705759477103, 45.17625053332059 -16.632696788548106, 45.654600800656475 -16.342718045390892 M44.585662491127565 -16.990714730406097 C44.88975347909675 -16.806372986462172, 45.19384446706593 -16.622031242518247, 45.654600800656475 -16.342718045390892 M45.654600800656475 -16.342718045390892 C45.90612212924914 -16.167267654747477, 46.15764345784181 -15.991817264104062, 46.67982557162949 -15.627565626425154 M45.654600800656475 -16.342718045390892 C45.952930732296025 -16.13461599957374, 46.251260663935575 -15.926513953756583, 46.67982557162949 -15.627565626425154 M46.67982557162949 -15.627565626425154 C47.01442880713013 -15.360728450279442, 47.34903204263077 -15.093891274133732, 47.65712393555265 -14.848196188198123 M46.67982557162949 -15.627565626425154 C47.02540215152488 -15.351977500137588, 47.370978731420266 -15.076389373850022, 47.65712393555265 -14.848196188198123 M47.65712393555265 -14.848196188198123 C47.90346931913901 -14.624471828766664, 48.149814702725386 -14.400747469335204, 48.58247996381877 -14.007812326905688 M47.65712393555265 -14.848196188198123 C47.883926058274355 -14.642220501197603, 48.11072818099606 -14.436244814197082, 48.58247996381877 -14.007812326905688 M48.58247996381877 -14.007812326905688 C48.80872421326312 -13.77419656435607, 49.03496846270747 -13.54058080180645, 49.45209117001943 -13.10986736009568 M48.58247996381877 -14.007812326905688 C48.805805695879904 -13.77721017316897, 49.02913142794104 -13.546608019432252, 49.45209117001943 -13.10986736009568 M49.45209117001943 -13.10986736009568 C49.68119688517857 -12.84074675058525, 49.910302600337715 -12.57162614107482, 50.262384135177356 -12.158051136245305 M49.45209117001943 -13.10986736009568 C49.769877862438264 -12.736577028605463, 50.08766455485709 -12.363286697115248, 50.262384135177356 -12.158051136245305 M50.262384135177356 -12.158051136245305 C50.52619328657734 -11.804570906877435, 50.79000243797733 -11.451090677509566, 51.010029191691416 -11.156274872382312 M50.262384135177356 -12.158051136245305 C50.418201598600476 -11.949269930521272, 50.57401906202359 -11.74048872479724, 51.010029191691416 -11.156274872382312 M51.010029191691416 -11.156274872382312 C51.23366572597978 -10.812709100897461, 51.45730226026814 -10.469143329412612, 51.69195410565503 -10.108655082055241 M51.010029191691416 -11.156274872382312 C51.25296767243468 -10.783056127844379, 51.49590615317795 -10.409837383306447, 51.69195410565503 -10.108655082055241 M51.69195410565503 -10.108655082055241 C51.887520121686975 -9.761407817384013, 52.08308613771892 -9.414160552712787, 52.305356701324285 -9.019496659696287 M51.69195410565503 -10.108655082055241 C51.85514823813264 -9.818887374643392, 52.01834237061026 -9.529119667231543, 52.305356701324285 -9.019496659696287 M52.305356701324285 -9.019496659696287 C52.45510600475676 -8.708539026996954, 52.60485530818923 -8.397581394297623, 52.84771637585912 -7.893275190886684 M52.305356701324285 -9.019496659696287 C52.46835529998179 -8.68102658197267, 52.6313538986393 -8.342556504249053, 52.84771637585912 -7.893275190886684 M52.84771637585912 -7.893275190886684 C52.963838887900394 -7.6064503410687045, 53.079961399941666 -7.319625491250725, 53.31680445702111 -6.734618561215508 M52.84771637585912 -7.893275190886684 C53.02415158169159 -7.457476821337842, 53.20058678752406 -7.021678451789, 53.31680445702111 -6.734618561215508 M53.31680445702111 -6.734618561215508 C53.441468914694646 -6.359149077286752, 53.56613337236818 -5.983679593357995, 53.71069336126566 -5.548287939305138 M53.31680445702111 -6.734618561215508 C53.45393187455586 -6.321612627887739, 53.59105929209063 -5.908606694559969, 53.71069336126566 -5.548287939305138 M53.71069336126566 -5.548287939305138 C53.8137884122312 -5.155141828295829, 53.916883463196726 -4.76199571728652, 54.02776451459634 -4.339158212148133 M53.71069336126566 -5.548287939305138 C53.781823380377105 -5.277038348487914, 53.85295339948855 -5.0057887576706905, 54.02776451459634 -4.339158212148133 M54.02776451459634 -4.339158212148133 C54.09438858383529 -3.997057697608168, 54.16101265307423 -3.6549571830682024, 54.266715003632555 -3.1121979531509023 M54.02776451459634 -4.339158212148133 C54.10925190407496 -3.920737689541286, 54.19073929355358 -3.5023171669344397, 54.266715003632555 -3.1121979531509023 M54.266715003632555 -3.1121979531509023 C54.30965733610788 -2.77914570239495, 54.35259966858321 -2.446093451638997, 54.42656292956015 -1.872449005199798 M54.266715003632555 -3.1121979531509023 C54.31006090046018 -2.7760157369713245, 54.35340679728781 -2.4398335207917468, 54.42656292956015 -1.872449005199798 M54.42656292956015 -1.872449005199798 C54.445854252298105 -1.5719710818807286, 54.465145575036054 -1.2714931585616593, 54.5066514429642 -0.6250057626472757 M54.42656292956015 -1.872449005199798 C54.45456396629816 -1.4363102559752008, 54.48256500303618 -1.0001715067506038, 54.5066514429642 -0.6250057626472757 M54.5066514429642 -0.6250057626472757 C54.5066514429642 -0.23048497471831086, 54.5066514429642 0.16403581321065397, 54.5066514429642 0.625005762647271 M54.5066514429642 -0.6250057626472757 C54.5066514429642 -0.26282937764331527, 54.5066514429642 0.09934700736064517, 54.5066514429642 0.625005762647271 M54.5066514429642 0.625005762647271 C54.47958704475302 1.0465556107754126, 54.45252264654184 1.4681054589035538, 54.42656292956015 1.8724490051997846 M54.5066514429642 0.625005762647271 C54.47813555665333 1.0691637095481896, 54.44961967034246 1.5133216564491083, 54.42656292956015 1.8724490051997846 M54.42656292956015 1.8724490051997846 C54.369463154245935 2.315303586910835, 54.312363378931714 2.7581581686218857, 54.266715003632555 3.1121979531508885 M54.42656292956015 1.8724490051997846 C54.36935182066015 2.316167068216839, 54.31214071176016 2.7598851312338937, 54.266715003632555 3.1121979531508885 M54.266715003632555 3.1121979531508885 C54.19369425597917 3.4871440594105683, 54.12067350832578 3.862090165670248, 54.02776451459634 4.339158212148129 M54.266715003632555 3.1121979531508885 C54.21263249176852 3.389900221229792, 54.158549979904485 3.667602489308696, 54.02776451459634 4.339158212148129 M54.02776451459634 4.339158212148129 C53.95070097616462 4.633034883737126, 53.873637437732896 4.9269115553261225, 53.71069336126567 5.548287939305125 M54.02776451459634 4.339158212148129 C53.91679871799621 4.762318887464915, 53.805832921396075 5.185479562781702, 53.71069336126567 5.548287939305125 M53.71069336126567 5.548287939305125 C53.5778539350519 5.948379125972711, 53.44501450883812 6.348470312640297, 53.31680445702111 6.734618561215495 M53.71069336126567 5.548287939305125 C53.62884591808567 5.794799397544157, 53.54699847490567 6.0413108557831885, 53.31680445702111 6.734618561215495 M53.31680445702111 6.734618561215495 C53.17108153458007 7.094556997005906, 53.02535861213903 7.4544954327963175, 52.84771637585912 7.893275190886679 M53.31680445702111 6.734618561215495 C53.187733901107464 7.053425329731629, 53.05866334519382 7.372232098247763, 52.84771637585912 7.893275190886679 M52.84771637585912 7.893275190886679 C52.68323471208621 8.234824885054952, 52.51875304831329 8.576374579223225, 52.305356701324285 9.019496659696284 M52.84771637585912 7.893275190886679 C52.65335210257314 8.296876763094254, 52.45898782928716 8.70047833530183, 52.305356701324285 9.019496659696284 M52.305356701324285 9.019496659696284 C52.08088444555161 9.418069880101347, 51.856412189778936 9.816643100506411, 51.69195410565503 10.108655082055236 M52.305356701324285 9.019496659696284 C52.16241089552191 9.273311412730843, 52.019465089719525 9.527126165765402, 51.69195410565503 10.108655082055236 M51.69195410565503 10.108655082055236 C51.48744587035866 10.422834649620901, 51.2829376350623 10.737014217186566, 51.01002919169142 11.156274872382301 M51.69195410565503 10.108655082055236 C51.456411085429785 10.470512413278279, 51.22086806520454 10.832369744501323, 51.01002919169142 11.156274872382301 M51.01002919169142 11.156274872382301 C50.79981506672888 11.437942648931347, 50.58960094176635 11.719610425480392, 50.26238413517736 12.158051136245302 M51.01002919169142 11.156274872382301 C50.725178839017474 11.537948394564413, 50.44032848634353 11.919621916746525, 50.26238413517736 12.158051136245302 M50.26238413517736 12.158051136245302 C49.97091874125007 12.500422972803046, 49.67945334732278 12.842794809360791, 49.45209117001944 13.10986736009567 M50.26238413517736 12.158051136245302 C49.98783443444843 12.480552837042042, 49.71328473371949 12.803054537838785, 49.45209117001944 13.10986736009567 M49.45209117001944 13.10986736009567 C49.193441232441174 13.376944656200036, 48.934791294862904 13.644021952304403, 48.58247996381877 14.007812326905684 M49.45209117001944 13.10986736009567 C49.21346551462155 13.356267940824662, 48.97483985922364 13.602668521553655, 48.58247996381877 14.007812326905684 M48.58247996381877 14.007812326905684 C48.23821687216782 14.320462958040817, 47.89395378051687 14.63311358917595, 47.65712393555267 14.848196188198111 M48.58247996381877 14.007812326905684 C48.25771754389437 14.302752963938257, 47.932955123969975 14.597693600970832, 47.65712393555267 14.848196188198111 M47.65712393555267 14.848196188198111 C47.39389353681582 15.058115426335656, 47.130663138078965 15.2680346644732, 46.67982557162949 15.627565626425152 M47.65712393555267 14.848196188198111 C47.28489485138988 15.145038977386003, 46.91266576722709 15.441881766573895, 46.67982557162949 15.627565626425152 M46.67982557162949 15.627565626425152 C46.334605186686694 15.868376422611647, 45.989384801743896 16.10918721879814, 45.65460080065649 16.34271804539089 M46.67982557162949 15.627565626425152 C46.306759323301435 15.887800491481206, 45.93369307497337 16.14803535653726, 45.65460080065649 16.34271804539089 M45.65460080065649 16.34271804539089 C45.271668947588324 16.574853585078166, 44.88873709452015 16.806989124765444, 44.585662491127565 16.990714730406093 M45.65460080065649 16.34271804539089 C45.27036269218263 16.575645444781504, 44.88612458370877 16.80857284417212, 44.585662491127565 16.990714730406093 M44.585662491127565 16.990714730406093 C44.18389121424447 17.20031854820922, 43.78211993736137 17.40992236601235, 43.47740313984317 17.56889292409717 M44.585662491127565 16.990714730406093 C44.220668211174136 17.181132012467803, 43.85567393122071 17.371549294529515, 43.47740313984317 17.56889292409717 M43.47740313984317 17.56889292409717 C43.1734365205783 17.70344992959634, 42.86946990131343 17.838006935095503, 42.334376822198585 18.07487676824742 M43.47740313984317 17.56889292409717 C43.19029761838003 17.695986021766206, 42.9031920969169 17.82307911943524, 42.334376822198585 18.07487676824742 M42.334376822198585 18.07487676824742 C42.095959829522194 18.162616425454853, 41.857542836845795 18.25035608266229, 41.1612804785114 18.506587066708033 M42.334376822198585 18.07487676824742 C41.8732712198162 18.2445678923376, 41.41216561743382 18.41425901642778, 41.1612804785114 18.506587066708033 M41.1612804785114 18.506587066708033 C40.814456594523556 18.609522574959907, 40.46763271053572 18.712458083211782, 39.962934613286194 18.86224982926107 M41.1612804785114 18.506587066708033 C40.8745154437838 18.591697423754802, 40.58775040905619 18.67680778080157, 39.962934613286194 18.86224982926107 M39.962934613286194 18.86224982926107 C39.480211655127164 18.97242819439918, 38.997488696968134 19.082606559537286, 38.74426348672755 19.140403561325773 M39.962934613286194 18.86224982926107 C39.70458713063809 18.92121595630062, 39.44623964798999 18.980182083340175, 38.74426348672755 19.140403561325773 M38.74426348672755 19.140403561325773 C38.25470718002674 19.2195512284273, 37.765150873325936 19.298698895528826, 37.51027487989866 19.3399052695533 M38.74426348672755 19.140403561325773 C38.30329945556019 19.211695206157774, 37.86233542439284 19.28298685098978, 37.51027487989866 19.3399052695533 M37.51027487989866 19.3399052695533 C37.039804259795275 19.38529100445097, 36.569333639691884 19.43067673934864, 36.26603951667468 19.45993515863156 M37.51027487989866 19.3399052695533 C37.23025846460912 19.36691811636727, 36.95024204931959 19.39393096318124, 36.26603951667468 19.45993515863156 M36.26603951667468 19.45993515863156 C35.84125150070308 19.473557283504054, 35.41646348473149 19.487179408376548, 35.01667022705079 19.5 M36.26603951667468 19.45993515863156 C35.93550169919157 19.470534863085412, 35.604963881708464 19.48113456753926, 35.01667022705079 19.5 M35.01667022705079 19.5 C35.01667022705079 19.5, 35.01667022705078 19.5, 35.01667022705078 19.5 M35.01667022705079 19.5 C35.01667022705079 19.5, 35.01667022705078 19.5, 35.01667022705078 19.5 M35.01667022705078 19.5 C7.43852956264411 19.5, -20.13961110176256 19.5, -35.016670227050774 19.5 M35.01667022705078 19.5 C17.378617168926663 19.5, -0.2594358891974551 19.5, -35.016670227050774 19.5 M-35.016670227050774 19.5 C-35.46519213315089 19.485616775466298, -35.91371403925102 19.471233550932595, -36.266039516674674 19.45993515863156 M-35.016670227050774 19.5 C-35.285805758116034 19.491369347359267, -35.55494128918129 19.482738694718538, -36.266039516674674 19.45993515863156 M-36.266039516674674 19.45993515863156 C-36.7328835660861 19.414899274646952, -37.19972761549752 19.369863390662346, -37.51027487989865 19.3399052695533 M-36.266039516674674 19.45993515863156 C-36.58930980104099 19.42874966308814, -36.91258008540731 19.39756416754472, -37.51027487989865 19.3399052695533 M-37.51027487989865 19.3399052695533 C-37.8410316874807 19.286431073960784, -38.17178849506274 19.23295687836827, -38.74426348672754 19.140403561325773 M-37.51027487989865 19.3399052695533 C-37.944444039635634 19.269712166839142, -38.378613199372616 19.19951906412499, -38.74426348672754 19.140403561325773 M-38.74426348672754 19.140403561325773 C-39.19362569632859 19.037839569346794, -39.642987905929644 18.935275577367815, -39.962934613286166 18.862249829261074 M-38.74426348672754 19.140403561325773 C-39.08064008419068 19.06362779801725, -39.41701668165381 18.98685203470873, -39.962934613286166 18.862249829261074 M-39.962934613286166 18.862249829261074 C-40.37069849548667 18.74122764942026, -40.77846237768718 18.620205469579446, -41.16128047851137 18.506587066708043 M-39.962934613286166 18.862249829261074 C-40.355064725882414 18.74586767017547, -40.74719483847867 18.629485511089868, -41.16128047851137 18.506587066708043 M-41.16128047851137 18.506587066708043 C-41.58782487647356 18.349614785324768, -42.014369274435744 18.192642503941492, -42.33437682219858 18.074876768247425 M-41.16128047851137 18.506587066708043 C-41.50406861325017 18.380437864425385, -41.84685674798897 18.254288662142724, -42.33437682219858 18.074876768247425 M-42.33437682219858 18.074876768247425 C-42.71841357781251 17.90487508858273, -43.10245033342644 17.73487340891804, -43.47740313984316 17.568892924097174 M-42.33437682219858 18.074876768247425 C-42.74522124693097 17.893008128685242, -43.156065671663356 17.71113948912306, -43.47740313984316 17.568892924097174 M-43.47740313984316 17.568892924097174 C-43.79234582738446 17.4045875257373, -44.10728851492576 17.24028212737742, -44.585662491127565 16.990714730406097 M-43.47740313984316 17.568892924097174 C-43.74008578665648 17.43185155551093, -44.002768433469804 17.294810186924686, -44.585662491127565 16.990714730406097 M-44.585662491127565 16.990714730406097 C-44.87993366311482 16.812325816618063, -45.174204835102074 16.63393690283003, -45.65460080065647 16.3427180453909 M-44.585662491127565 16.990714730406097 C-44.82178467081245 16.847576077473168, -45.05790685049733 16.70443742454024, -45.65460080065647 16.3427180453909 M-45.65460080065647 16.3427180453909 C-46.031005820337 16.080154197972448, -46.407410840017526 15.817590350553996, -46.67982557162949 15.627565626425156 M-45.65460080065647 16.3427180453909 C-46.041108687892105 16.073106874912092, -46.42761657512774 15.803495704433283, -46.67982557162949 15.627565626425156 M-46.67982557162949 15.627565626425156 C-46.982038142543104 15.386559143335816, -47.28425071345671 15.145552660246475, -47.65712393555265 14.848196188198125 M-46.67982557162949 15.627565626425156 C-46.93491667128409 15.424137262709865, -47.190007770938685 15.220708898994573, -47.65712393555265 14.848196188198125 M-47.65712393555265 14.848196188198125 C-48.02240023722958 14.516461915696464, -48.387676538906526 14.184727643194805, -48.582479963818756 14.007812326905695 M-47.65712393555265 14.848196188198125 C-47.92679386875562 14.603289089938633, -48.19646380195858 14.35838199167914, -48.582479963818756 14.007812326905695 M-48.582479963818756 14.007812326905695 C-48.767192341796836 13.81708163147506, -48.95190471977492 13.626350936044425, -49.452091170019436 13.109867360095677 M-48.582479963818756 14.007812326905695 C-48.840859525050114 13.741014216577828, -49.09923908628147 13.474216106249958, -49.452091170019436 13.109867360095677 M-49.452091170019436 13.109867360095677 C-49.77347763542451 12.73234853042293, -50.09486410082959 12.354829700750184, -50.262384135177356 12.158051136245307 M-49.452091170019436 13.109867360095677 C-49.646002849909806 12.882087667009285, -49.839914529800176 12.654307973922892, -50.262384135177356 12.158051136245307 M-50.262384135177356 12.158051136245307 C-50.473098152009094 11.875713550132625, -50.683812168840824 11.593375964019945, -51.010029191691416 11.156274872382316 M-50.262384135177356 12.158051136245307 C-50.55765277170769 11.762418062820828, -50.85292140823802 11.366784989396349, -51.010029191691416 11.156274872382316 M-51.010029191691416 11.156274872382316 C-51.19528569732313 10.871671131394821, -51.38054220295484 10.587067390407327, -51.69195410565503 10.108655082055249 M-51.010029191691416 11.156274872382316 C-51.16392845313062 10.91984427907357, -51.31782771456983 10.683413685764824, -51.69195410565503 10.108655082055249 M-51.69195410565503 10.108655082055249 C-51.902680822768914 9.734488457425579, -52.1134075398828 9.360321832795911, -52.305356701324285 9.019496659696289 M-51.69195410565503 10.108655082055249 C-51.87899057356503 9.776552893784942, -52.066027041475024 9.444450705514637, -52.305356701324285 9.019496659696289 M-52.305356701324285 9.019496659696289 C-52.49054664056623 8.634945788430464, -52.67573657980817 8.250394917164638, -52.84771637585912 7.893275190886686 M-52.305356701324285 9.019496659696289 C-52.479081093782746 8.658754241649765, -52.652805486241206 8.29801182360324, -52.84771637585912 7.893275190886686 M-52.84771637585912 7.893275190886686 C-53.030626425358356 7.441483832298339, -53.2135364748576 6.989692473709993, -53.31680445702111 6.73461856121551 M-52.84771637585912 7.893275190886686 C-53.0069259040653 7.500024578110609, -53.166135432271474 7.106773965334533, -53.31680445702111 6.73461856121551 M-53.31680445702111 6.73461856121551 C-53.40007361641664 6.4838251202549975, -53.483342775812176 6.233031679294485, -53.71069336126566 5.5482879393051325 M-53.31680445702111 6.73461856121551 C-53.45029297345864 6.332572418212431, -53.583781489896175 5.930526275209351, -53.71069336126566 5.5482879393051325 M-53.71069336126566 5.5482879393051325 C-53.78131798859425 5.278965626394118, -53.85194261592284 5.009643313483104, -54.02776451459634 4.339158212148136 M-53.71069336126566 5.5482879393051325 C-53.783785798958334 5.269554795920095, -53.856878236651006 4.990821652535056, -54.02776451459634 4.339158212148136 M-54.02776451459634 4.339158212148136 C-54.08427076177864 4.049010575466596, -54.14077700896094 3.758862938785056, -54.266715003632555 3.112197953150904 M-54.02776451459634 4.339158212148136 C-54.11915762373363 3.8698739126686177, -54.210550732870914 3.4005896131890996, -54.266715003632555 3.112197953150904 M-54.266715003632555 3.112197953150904 C-54.31203987223265 2.7606672226962443, -54.35736474083274 2.4091364922415845, -54.42656292956015 1.872449005199809 M-54.266715003632555 3.112197953150904 C-54.31916255750132 2.7054250822857444, -54.37161011137008 2.2986522114205847, -54.42656292956015 1.872449005199809 M-54.42656292956015 1.872449005199809 C-54.45150528597055 1.4839516710000924, -54.476447642380954 1.0954543368003757, -54.5066514429642 0.6250057626472781 M-54.42656292956015 1.872449005199809 C-54.45678269472192 1.4017517698498005, -54.4870024598837 0.9310545344997919, -54.5066514429642 0.6250057626472781 M-54.5066514429642 0.6250057626472781 C-54.5066514429642 0.26945672414979593, -54.5066514429642 -0.08609231434768627, -54.5066514429642 -0.6250057626472687 M-54.5066514429642 0.6250057626472781 C-54.5066514429642 0.1346272576156356, -54.5066514429642 -0.35575124741600694, -54.5066514429642 -0.6250057626472687 M-54.5066514429642 -0.6250057626472687 C-54.47779687210046 -1.0744389948403303, -54.44894230123673 -1.5238722270333918, -54.42656292956015 -1.8724490051997822 M-54.5066514429642 -0.6250057626472687 C-54.486532857856474 -0.9383689651296373, -54.46641427274876 -1.251732167612006, -54.42656292956015 -1.8724490051997822 M-54.42656292956015 -1.8724490051997822 C-54.385530881015406 -2.190685471018341, -54.34449883247066 -2.5089219368369, -54.266715003632555 -3.112197953150895 M-54.42656292956015 -1.8724490051997822 C-54.37321789858397 -2.2861825312831936, -54.319872867607785 -2.699916057366605, -54.266715003632555 -3.112197953150895 M-54.266715003632555 -3.112197953150895 C-54.21527167403134 -3.3763485781015814, -54.16382834443012 -3.6404992030522676, -54.02776451459634 -4.339158212148126 M-54.266715003632555 -3.112197953150895 C-54.17953201515956 -3.559864172828589, -54.09234902668657 -4.007530392506283, -54.02776451459634 -4.339158212148126 M-54.02776451459634 -4.339158212148126 C-53.91995317355647 -4.7502895812639325, -53.8121418325166 -5.16142095037974, -53.71069336126567 -5.548287939305123 M-54.02776451459634 -4.339158212148126 C-53.90745394126716 -4.79795457118464, -53.78714336793797 -5.256750930221154, -53.71069336126567 -5.548287939305123 M-53.71069336126567 -5.548287939305123 C-53.565904583344036 -5.984368669446139, -53.4211158054224 -6.420449399587155, -53.316804457021114 -6.734618561215485 M-53.71069336126567 -5.548287939305123 C-53.602134771539646 -5.87524911509753, -53.49357618181362 -6.202210290889938, -53.316804457021114 -6.734618561215485 M-53.316804457021114 -6.734618561215485 C-53.16452456770874 -7.110752831948428, -53.01224467839636 -7.486887102681371, -52.84771637585912 -7.893275190886678 M-53.316804457021114 -6.734618561215485 C-53.14724296196295 -7.1534387322576265, -52.9776814669048 -7.572258903299768, -52.84771637585912 -7.893275190886678 M-52.84771637585912 -7.893275190886678 C-52.66089874064932 -8.28120600765688, -52.47408110543952 -8.669136824427083, -52.305356701324285 -9.019496659696282 M-52.84771637585912 -7.893275190886678 C-52.71161419794247 -8.175894275450712, -52.575512020025805 -8.458513360014749, -52.305356701324285 -9.019496659696282 M-52.305356701324285 -9.019496659696282 C-52.10212024795691 -9.380363562572569, -51.89888379458954 -9.741230465448856, -51.69195410565503 -10.108655082055243 M-52.305356701324285 -9.019496659696282 C-52.157553550039964 -9.281936121493594, -52.00975039875564 -9.544375583290908, -51.69195410565503 -10.108655082055243 M-51.69195410565503 -10.108655082055243 C-51.43033753463646 -10.510568389025558, -51.168720963617886 -10.912481695995874, -51.01002919169142 -11.156274872382308 M-51.69195410565503 -10.108655082055243 C-51.50322884645448 -10.398587760015225, -51.31450358725393 -10.688520437975207, -51.01002919169142 -11.156274872382308 M-51.01002919169142 -11.156274872382308 C-50.805920387026454 -11.429762075938731, -50.601811582361485 -11.703249279495152, -50.26238413517736 -12.158051136245302 M-51.01002919169142 -11.156274872382308 C-50.770450202670624 -11.477288891575274, -50.530871213649824 -11.79830291076824, -50.26238413517736 -12.158051136245302 M-50.26238413517736 -12.158051136245302 C-49.9553866275578 -12.518667877348292, -49.64838911993824 -12.879284618451283, -49.45209117001944 -13.109867360095668 M-50.26238413517736 -12.158051136245302 C-50.09571991213326 -12.353824416095849, -49.92905568908916 -12.549597695946396, -49.45209117001944 -13.109867360095668 M-49.45209117001944 -13.109867360095668 C-49.218075882744 -13.351507357219962, -48.984060595468556 -13.593147354344254, -48.58247996381878 -14.007812326905677 M-49.45209117001944 -13.109867360095668 C-49.19493295029979 -13.375404335038702, -48.93777473058013 -13.640941309981736, -48.58247996381878 -14.007812326905677 M-48.58247996381878 -14.007812326905677 C-48.26022320599655 -14.300477387913247, -47.93796644817432 -14.593142448920817, -47.65712393555267 -14.848196188198107 M-48.58247996381878 -14.007812326905677 C-48.22253856653897 -14.3347015803877, -47.86259716925916 -14.661590833869722, -47.65712393555267 -14.848196188198107 M-47.65712393555267 -14.848196188198107 C-47.276827526176206 -15.151472454563368, -46.896531116799736 -15.454748720928631, -46.6798255716295 -15.627565626425149 M-47.65712393555267 -14.848196188198107 C-47.44302870344689 -15.018931438489068, -47.228933471341115 -15.189666688780026, -46.6798255716295 -15.627565626425149 M-46.6798255716295 -15.627565626425149 C-46.275374083152855 -15.909693476363708, -45.87092259467621 -16.191821326302268, -45.654600800656496 -16.342718045390885 M-46.6798255716295 -15.627565626425149 C-46.42540295814045 -15.805039827817684, -46.170980344651404 -15.982514029210217, -45.654600800656496 -16.342718045390885 M-45.654600800656496 -16.342718045390885 C-45.327018896435995 -16.541300120814302, -44.99943699221549 -16.73988219623772, -44.58566249112757 -16.99071473040609 M-45.654600800656496 -16.342718045390885 C-45.33318365722265 -16.537563006597278, -45.01176651378879 -16.732407967803674, -44.58566249112757 -16.99071473040609 M-44.58566249112757 -16.99071473040609 C-44.24313812457603 -17.1694094730387, -43.900613758024484 -17.348104215671317, -43.47740313984317 -17.56889292409717 M-44.58566249112757 -16.99071473040609 C-44.24267537260184 -17.169650890447233, -43.8996882540761 -17.348587050488373, -43.47740313984317 -17.56889292409717 M-43.47740313984317 -17.56889292409717 C-43.04006031125345 -17.762491620999775, -42.60271748266372 -17.956090317902376, -42.334376822198585 -18.07487676824742 M-43.47740313984317 -17.56889292409717 C-43.12117171801008 -17.726586007313003, -42.764940296177 -17.884279090528835, -42.334376822198585 -18.07487676824742 M-42.334376822198585 -18.07487676824742 C-42.083782620189965 -18.167097751054005, -41.833188418181344 -18.259318733860585, -41.1612804785114 -18.506587066708033 M-42.334376822198585 -18.07487676824742 C-42.088500416548804 -18.16536155838312, -41.84262401089903 -18.255846348518816, -41.1612804785114 -18.506587066708033 M-41.1612804785114 -18.506587066708033 C-40.72663296707315 -18.63558816659156, -40.2919854556349 -18.764589266475088, -39.962934613286194 -18.862249829261067 M-41.1612804785114 -18.506587066708033 C-40.74598548321315 -18.62984444138464, -40.33069048791489 -18.753101816061246, -39.962934613286194 -18.862249829261067 M-39.962934613286194 -18.862249829261067 C-39.51197588234394 -18.9651782168179, -39.06101715140168 -19.068106604374734, -38.74426348672755 -19.140403561325773 M-39.962934613286194 -18.862249829261067 C-39.65781816582425 -18.931890667323362, -39.35270171836231 -19.001531505385657, -38.74426348672755 -19.140403561325773 M-38.74426348672755 -19.140403561325773 C-38.32928041937454 -19.207494805413656, -37.91429735202154 -19.274586049501536, -37.51027487989866 -19.3399052695533 M-38.74426348672755 -19.140403561325773 C-38.49112191636509 -19.18132952727978, -38.23798034600263 -19.22225549323378, -37.51027487989866 -19.3399052695533 M-37.51027487989866 -19.3399052695533 C-37.24287569683137 -19.365700947149232, -36.97547651376407 -19.391496624745166, -36.26603951667468 -19.45993515863156 M-37.51027487989866 -19.3399052695533 C-37.19895368176533 -19.3699380511187, -36.887632483632004 -19.399970832684104, -36.26603951667468 -19.45993515863156 M-36.26603951667468 -19.45993515863156 C-35.786713625913215 -19.475306206997033, -35.30738773515176 -19.490677255362503, -35.01667022705079 -19.5 M-36.26603951667468 -19.45993515863156 C-35.8627917687167 -19.472866529034444, -35.45954402075871 -19.485797899437333, -35.01667022705079 -19.5 M-35.01667022705079 -19.5 C-35.01667022705079 -19.5, -35.01667022705079 -19.5, -35.01667022705078 -19.5 M-35.01667022705079 -19.5 C-35.01667022705079 -19.5, -35.01667022705078 -19.5, -35.01667022705078 -19.5" stroke="#ccc" stroke-width="1.3" fill="none" stroke-dasharray="0 0" style=""></path></g><g class="label" style="" transform="translate(-42.14167022705078, -12)"><rect></rect><foreignObject width="84.28334045410156" height="24"><div style="display: table-cell; white-space: nowrap; line-height: 1.5; max-width: 200px; text-align: center;" xmlns="http://www.w3.org/1999/xhtml"><span class="nodeLabel"><p>App mounts</p></span></div></foreignObject></g></g><g class="node default" id="flowchart-B-1" transform="translate(989.7416687011719, 236)"><polygon points="139,0 278,-139 139,-278 0,-139" class="label-container" transform="translate(-138.5, 139)"></polygon><g class="label" style="" transform="translate(-100, -24)"><rect></rect><foreignObject width="200" height="48"><div style="display: table; white-space: break-spaces; line-height: 1.5; max-width: 200px; text-align: center; width: 200px;" xmlns="http://www.w3.org/1999/xhtml"><span class="nodeLabel"><p>isAuthenticated?\npb.authStore.isValid</p></span></div></foreignObject></g></g><g class="node default" id="flowchart-C-3" transform="translate(664.9125022888184, 476)"><rect class="basic label-container" style="" x="-93.46666717529297" y="-27" width="186.93333435058594" height="54"></rect><g class="label" style="" transform="translate(-63.46666717529297, -12)"><rect></rect><foreignObject width="126.93333435058594" height="24"><div style="display: table-cell; white-space: nowrap; line-height: 1.5; max-width: 200px; text-align: center;" xmlns="http://www.w3.org/1999/xhtml"><span class="nodeLabel"><p>Render Auth form</p></span></div></foreignObject></g></g><g class="node default" id="flowchart-D-5" transform="translate(223.76250076293945, 592)"><rect class="basic label-container" style="" x="-130" y="-39" width="260" height="78"></rect><g class="label" style="" transform="translate(-100, -24)"><rect></rect><foreignObject width="200" height="48"><div style="display: table; white-space: break-spaces; line-height: 1.5; max-width: 200px; text-align: center; width: 200px;" xmlns="http://www.w3.org/1999/xhtml"><span class="nodeLabel"><p>User enters email + password</p></span></div></foreignObject></g></g><g class="node default" id="flowchart-E-7" transform="translate(152.71666717529297, 732)"><rect class="basic label-container" style="" x="-107.09166717529297" y="-27" width="214.18333435058594" height="54"></rect><g class="label" style="" transform="translate(-77.09166717529297, -12)"><rect></rect><foreignObject width="154.18333435058594" height="24"><div style="display: table-cell; white-space: nowrap; line-height: 1.5; max-width: 200px; text-align: center;" xmlns="http://www.w3.org/1999/xhtml"><span class="nodeLabel"><p>pb.authWithPassword</p></span></div></foreignObject></g></g><g class="node default" id="flowchart-F-9" transform="translate(104.1500015258789, 872)"><rect class="basic label-container" style="" x="-96.1500015258789" y="-27" width="192.3000030517578" height="54"></rect><g class="label" style="" transform="translate(-66.1500015258789, -12)"><rect></rect><foreignObject width="132.3000030517578" height="24"><div style="display: table-cell; white-space: nowrap; line-height: 1.5; max-width: 200px; text-align: center;" xmlns="http://www.w3.org/1999/xhtml"><span class="nodeLabel"><p>Show error banner</p></span></div></foreignObject></g></g><g class="node default" id="flowchart-G-13" transform="translate(380.3000030517578, 872)"><rect class="basic label-container" style="" x="-130" y="-39" width="260" height="78"></rect><g class="label" style="" transform="translate(-100, -24)"><rect></rect><foreignObject width="200" height="48"><div style="display: table; white-space: break-spaces; line-height: 1.5; max-width: 200px; text-align: center; width: 200px;" xmlns="http://www.w3.org/1999/xhtml"><span class="nodeLabel"><p>onAuthenticated → setAuthed=true</p></span></div></foreignObject></g></g><g class="node default" id="flowchart-H-15" transform="translate(921.0083351135254, 1000)"><rect class="basic label-container" style="" x="-130" y="-39" width="260" height="78"></rect><g class="label" style="" transform="translate(-100, -24)"><rect></rect><foreignObject width="200" height="48"><div style="display: table; white-space: break-spaces; line-height: 1.5; max-width: 200px; text-align: center; width: 200px;" xmlns="http://www.w3.org/1999/xhtml"><span class="nodeLabel"><p>loadData triggered via useEffect</p></span></div></foreignObject></g></g><g class="node default" id="flowchart-I-19" transform="translate(921.0083351135254, 1128)"><rect class="basic label-container" style="" x="-130" y="-39" width="260" height="78"></rect><g class="label" style="" transform="translate(-100, -24)"><rect></rect><foreignObject width="200" height="48"><div style="display: table; white-space: break-spaces; line-height: 1.5; max-width: 200px; text-align: center; width: 200px;" xmlns="http://www.w3.org/1999/xhtml"><span class="nodeLabel"><p>authRefresh best-effort\nrequestKey: null</p></span></div></foreignObject></g></g><g class="node default" id="flowchart-J-21" transform="translate(921.0083351135254, 1256)"><rect class="basic label-container" style="" x="-130" y="-39" width="260" height="78"></rect><g class="label" style="" transform="translate(-100, -24)"><rect></rect><foreignObject width="200" height="48"><div style="display: table; white-space: break-spaces; line-height: 1.5; max-width: 200px; text-align: center; width: 200px;" xmlns="http://www.w3.org/1999/xhtml"><span class="nodeLabel"><p>initializeUser\nread orgId from pb.authStore.model</p></span></div></foreignObject></g></g><g class="node default" id="flowchart-K-23" transform="translate(766.8416709899902, 1432)"><rect class="basic label-container" style="" x="-100.99166870117188" y="-27" width="201.98333740234375" height="54"></rect><g class="label" style="" transform="translate(-70.99166870117188, -12)"><rect></rect><foreignObject width="141.98333740234375" height="24"><div style="display: table-cell; white-space: nowrap; line-height: 1.5; max-width: 200px; text-align: center;" xmlns="http://www.w3.org/1999/xhtml"><span class="nodeLabel"><p>Show org error, halt</p></span></div></foreignObject></g></g><g class="node default" id="flowchart-L-25" transform="translate(1061.5041694641113, 1432)"><rect class="basic label-container" style="" x="-130" y="-63" width="260" height="126"></rect><g class="label" style="" transform="translate(-100, -48)"><rect></rect><foreignObject width="200" height="96"><div style="display: table; white-space: break-spaces; line-height: 1.5; max-width: 200px; text-align: center; width: 200px;" xmlns="http://www.w3.org/1999/xhtml"><span class="nodeLabel"><p>Restore read state from localStorage\nRestore articles from sessionStorage</p></span></div></foreignObject></g></g><g class="node default" id="flowchart-M-27" transform="translate(1061.5041694641113, 1608)"><rect class="basic label-container" style="" x="-130" y="-63" width="260" height="126"></rect><g class="label" style="" transform="translate(-100, -48)"><rect></rect><foreignObject width="200" height="96"><div style="display: table; white-space: break-spaces; line-height: 1.5; max-width: 200px; text-align: center; width: 200px;" xmlns="http://www.w3.org/1999/xhtml"><span class="nodeLabel"><p>Promise.all parallel fetch:\nvulnerabilities · weights · settings\nrssFeeds · groups · users</p></span></div></foreignObject></g></g><g class="node default" id="flowchart-N-29" transform="translate(1061.5041694641113, 1760)"><rect class="basic label-container" style="" x="-130" y="-39" width="260" height="78"></rect><g class="label" style="" transform="translate(-100, -24)"><rect></rect><foreignObject width="200" height="48"><div style="display: table; white-space: break-spaces; line-height: 1.5; max-width: 200px; text-align: center; width: 200px;" xmlns="http://www.w3.org/1999/xhtml"><span class="nodeLabel"><p>Resolve weights: user → org default → hardcoded</p></span></div></foreignObject></g></g><g class="node default" id="flowchart-O-31" transform="translate(1061.5041694641113, 1888)"><rect class="basic label-container" style="" x="-130" y="-39" width="260" height="78"></rect><g class="label" style="" transform="translate(-100, -24)"><rect></rect><foreignObject width="200" height="48"><div style="display: table; white-space: break-spaces; line-height: 1.5; max-width: 200px; text-align: center; width: 200px;" xmlns="http://www.w3.org/1999/xhtml"><span class="nodeLabel"><p>scoreVulnerability for each record</p></span></div></foreignObject></g></g><g class="node default" id="flowchart-P-33" transform="translate(1061.5041694641113, 2116)"><polygon points="139,0 278,-139 139,-278 0,-139" class="label-container" transform="translate(-138.5, 139)"></polygon><g class="label" style="" transform="translate(-100, -24)"><rect></rect><foreignObject width="200" height="48"><div style="display: table; white-space: break-spaces; line-height: 1.5; max-width: 200px; text-align: center; width: 200px;" xmlns="http://www.w3.org/1999/xhtml"><span class="nodeLabel"><p>lastKevSync stale?\n&gt;24h or never synced</p></span></div></foreignObject></g></g><g class="node default" id="flowchart-Q-35" transform="translate(970.4083366394043, 2368)"><rect class="basic label-container" style="" x="-130" y="-39" width="260" height="78"></rect><g class="label" style="" transform="translate(-100, -24)"><rect></rect><foreignObject width="200" height="48"><div style="display: table; white-space: break-spaces; line-height: 1.5; max-width: 200px; text-align: center; width: 200px;" xmlns="http://www.w3.org/1999/xhtml"><span class="nodeLabel"><p>syncKevFeed in background\nnon-blocking</p></span></div></foreignObject></g></g><g class="node default" id="flowchart-R-37" transform="translate(1061.5041694641113, 2596)"><polygon points="139,0 278,-139 139,-278 0,-139" class="label-container" transform="translate(-138.5, 139)"></polygon><g class="label" style="" transform="translate(-100, -24)"><rect></rect><foreignObject width="200" height="48"><div style="display: table; white-space: break-spaces; line-height: 1.5; max-width: 200px; text-align: center; width: 200px;" xmlns="http://www.w3.org/1999/xhtml"><span class="nodeLabel"><p>defaultFeedsSeeded?\nand no existing feeds?</p></span></div></foreignObject></g></g><g class="node default" id="flowchart-S-41" transform="translate(970.4083366394043, 2860)"><rect class="basic label-container" style="" x="-130" y="-51" width="260" height="102"></rect><g class="label" style="" transform="translate(-100, -36)"><rect></rect><foreignObject width="200" height="72"><div style="display: table; white-space: break-spaces; line-height: 1.5; max-width: 200px; text-align: center; width: 200px;" xmlns="http://www.w3.org/1999/xhtml"><span class="nodeLabel"><p>Seed 3 default RSS feeds\nmark defaultFeedsSeeded=true</p></span></div></foreignObject></g></g><g class="node default" id="flowchart-T-43" transform="translate(1061.5041694641113, 2988)"><rect class="basic label-container" style="" x="-66.11666870117188" y="-27" width="132.23333740234375" height="54"></rect><g class="label" style="" transform="translate(-36.116668701171875, -12)"><rect></rect><foreignObject width="72.23333740234375" height="24"><div style="display: table-cell; white-space: nowrap; line-height: 1.5; max-width: 200px; text-align: center;" xmlns="http://www.w3.org/1999/xhtml"><span class="nodeLabel"><p>App ready</p></span></div></foreignObject></g></g><g class="node default" id="flowchart-U-47" transform="translate(970.4083366394043, 3104)"><rect class="basic label-container" style="" x="-130" y="-39" width="260" height="78"></rect><g class="label" style="" transform="translate(-100, -24)"><rect></rect><foreignObject width="200" height="48"><div style="display: table; white-space: break-spaces; line-height: 1.5; max-width: 200px; text-align: center; width: 200px;" xmlns="http://www.w3.org/1999/xhtml"><span class="nodeLabel"><p>pb.authStore.onChange listener</p></span></div></foreignObject></g></g><g class="node default" id="flowchart-V-49" transform="translate(698.8458366394043, 3256)"><rect class="basic label-container" style="" x="-87.56666564941406" y="-27" width="175.13333129882812" height="54"></rect><g class="label" style="" transform="translate(-57.56666564941406, -12)"><rect></rect><foreignObject width="115.13333129882812" height="24"><div style="display: table-cell; white-space: nowrap; line-height: 1.5; max-width: 200px; text-align: center;" xmlns="http://www.w3.org/1999/xhtml"><span class="nodeLabel"><p>setAuthed=false</p></span></div></foreignObject></g></g><g class="node default" id="flowchart-W-53" transform="translate(1249.7333335876465, 3104)"><rect class="basic label-container" style="" x="-99.32499694824219" y="-27" width="198.64999389648438" height="54"></rect><g class="label" style="" transform="translate(-69.32499694824219, -12)"><rect></rect><foreignObject width="138.64999389648438" height="24"><div style="display: table-cell; white-space: nowrap; line-height: 1.5; max-width: 200px; text-align: center;" xmlns="http://www.w3.org/1999/xhtml"><span class="nodeLabel"><p>User clicks Sign out</p></span></div></foreignObject></g></g><g class="node default" id="flowchart-X-55" transform="translate(1288.1666679382324, 3256)"><rect class="basic label-container" style="" x="-130" y="-39" width="260" height="78"></rect><g class="label" style="" transform="translate(-100, -24)"><rect></rect><foreignObject width="200" height="48"><div style="display: table; white-space: break-spaces; line-height: 1.5; max-width: 200px; text-align: center; width: 200px;" xmlns="http://www.w3.org/1999/xhtml"><span class="nodeLabel"><p>logout → clear authStore\nreset all state</p></span></div></foreignObject></g></g></g></g></g></g></svg>